<?xml version="1.0" encoding="UTF-8" standalone="no"?>
<svg
   viewBox="0 0 1000 650"
   width="1000"
   height="650"
   version="1.1"
   id="svg5125"
   sodipodi:docname="choices00.svg"
   inkscape:version="1.2.2 (b0a8486541, 2022-12-01)"
   xmlns:inkscape="http://www.inkscape.org/namespaces/inkscape"
   xmlns:sodipodi="http://sodipodi.sourceforge.net/DTD/sodipodi-0.dtd"
   xmlns="http://www.w3.org/2000/svg"
   xmlns:svg="http://www.w3.org/2000/svg">
  <sodipodi:namedview
     id="namedview211656"
     pagecolor="#ffffff"
     bordercolor="#666666"
     borderopacity="1.0"
     inkscape:showpageshadow="2"
     inkscape:pageopacity="0.0"
     inkscape:pagecheckerboard="0"
     inkscape:deskcolor="#d1d1d1"
     showgrid="false"
     inkscape:zoom="0.51346831"
     inkscape:cx="539.46854"
     inkscape:cy="396.32436"
     inkscape:window-width="1440"
     inkscape:window-height="810"
     inkscape:window-x="2200"
     inkscape:window-y="142"
     inkscape:window-maximized="0"
     inkscape:current-layer="svg5125" />
  <defs
     id="defs5129" />
  <!-- Outer Circle -->
  <!-- Animated Object -->
  <path
     style="fill:none;stroke-width:0.2;stroke-linecap:round;stroke-linejoin:round;stroke-miterlimit:6.16041"
     d="m 343.24165,297.7817 c 0.86623,42.85404 18.39658,85.15654 48.09653,116.06176 20.9133,21.76199 47.63842,37.88659 76.64099,46.24134 29.00257,8.35475 60.21021,8.91879 89.49574,1.61753 29.28553,-7.30125 56.57587,-22.44959 78.26191,-43.44165 21.68603,-20.99206 37.71364,-47.77545 45.96319,-76.80812"
     id="path5954" />
  <path
     style="fill:none;stroke-width:0.4;stroke-linecap:round;stroke-linejoin:round;stroke-miterlimit:6.16041;stroke-dasharray:none"
     d="m 55.533796,444.93972 c 35.657715,-28.46966 71.315314,-56.93921 121.786564,-50.02287 50.47126,6.91634 115.75253,49.21605 163.06922,51.15135 47.31669,1.93531 76.66761,-36.49248 123.16732,-35.7549 46.49972,0.73758 110.14383,40.63911 156.03763,40.46101 45.8938,-0.17809 74.03621,-40.43449 96.55933,-29.74983 22.52312,10.68467 39.42526,72.30773 56.92828,59.66951 17.50303,-12.63821 35.60636,-99.53503 31.27656,-155.40474 -4.32979,-55.8697 -31.0932,-80.70976 -64.72497,-77.07476 -33.63176,3.635 -74.12882,35.74533 -124.76797,32.03564 -50.63915,-3.7097 -111.41819,-43.23935 -174.05593,-48.24277 -62.63775,-5.00342 -127.1297,24.51994 -179.3554,23.95818 -52.2257,-0.56177 -92.18292,-31.2091 -131.57594,-15.4567 -39.393019,15.75241 -78.218194,77.90326 -90.225578,112.36936 -12.007384,34.4661 2.801833,41.24566 17.610145,48.0248"
     id="path5958" />
  <path
     style="fill:none;stroke:#000000;stroke-width:2;stroke-linecap:round;stroke-linejoin:round;stroke-miterlimit:6.16041;stroke-dasharray:none;stroke-opacity:1"
     d="m 80.114456,525.08695 c -1.572316,-7.26048 -1.050076,-14.96211 1.487987,-21.94388 2.538063,-6.98175 7.08365,-13.22079 12.951509,-17.77655 5.867848,-4.55577 13.038768,-7.41336 20.431728,-8.14199 7.39296,-0.72863 14.98377,0.67408 21.62809,3.99669 9.5897,4.79549 16.77093,13.19207 24.16181,20.95959 3.69543,3.88376 7.5233,7.67395 11.83884,10.85452 4.31553,3.18056 9.15284,5.74877 14.37533,6.9593 9.36638,2.17106 19.35446,-0.20691 27.79836,-4.80506 8.44391,-4.59815 15.55496,-11.27649 22.25224,-18.17495 6.6973,-6.89845 13.11745,-14.12342 20.61254,-20.14555 7.49509,-6.02215 16.25287,-10.85472 25.78812,-12.0882 8.50198,-1.0998 17.20852,0.73383 25.05359,4.19042 7.84508,3.45658 14.90339,8.48239 21.51764,13.93628 13.22849,10.90775 25.21945,23.85894 40.79565,31.02515 13.88258,6.38701 29.75022,7.65106 44.88316,5.52637 15.13295,-2.12469 29.63825,-7.48955 43.51842,-13.88182 27.76035,-12.78456 54.13091,-30.00393 84.20012,-35.47422 24.18137,-4.39916 49.17598,-0.8224 72.92031,5.52567 23.74433,6.34808 46.67273,15.42687 70.2669,22.31212 80.81404,23.58309 169.18847,20.43902 248.12231,-8.82736"
     id="path-03" />
  <ellipse
     style="fill:#eed592;stroke:#000000;stroke-width:2;stroke-linecap:round;stroke-linejoin:round;stroke-miterlimit:6.16041;stroke-dasharray:none;stroke-opacity:1;fill-opacity:0.35144383"
     id="obj2path-03_speed_2"
     cx="83.268295"
     cy="521.58984"
     rx="11.292289"
     ry="10.709881" />
  <ellipse
     style="fill:#92c9ee;stroke:#000000;stroke-width:2;stroke-linecap:round;stroke-linejoin:round;stroke-miterlimit:6.16041;stroke-dasharray:none;stroke-opacity:1;fill-opacity:0.35144383"
     id="obj2path-05_speed_13_direction_0"
     cx="50.575661"
     cy="47.429432"
     rx="33.874359"
     ry="32.127266" />
  <path
     style="fill:none;stroke:#000000;stroke-width:2;stroke-linecap:round;stroke-linejoin:round;stroke-miterlimit:6.16041;stroke-dasharray:none;stroke-opacity:1"
     d="m 140.05829,283.17024 c 51.98342,-17.58252 106.09458,-28.86467 160.77309,-33.52113 74.58682,-6.35186 150.48953,-0.26862 222.31326,20.82384 30.93799,9.08556 61.97923,21.05435 94.19527,19.70009 34.15395,-1.43572 65.67387,-17.67467 96.21934,-33.02159 30.54546,-15.34692 62.90045,-30.49516 97.06962,-29.48451 19.63341,0.58071 39.07449,6.67563 55.52541,17.40759 16.45092,10.73198 29.86276,26.06909 38.30537,43.8041"
     id="path-01" />
  <ellipse
     style="fill:#baee92;fill-opacity:0.351444;stroke:#000000;stroke-width:2;stroke-linecap:round;stroke-linejoin:round;stroke-miterlimit:6.16041;stroke-dasharray:none;stroke-opacity:1"
     id="obj2path-01_speed_21"
     cx="133.33774"
     cy="276.55283"
     rx="45.046963"
     ry="39.184376" />
  <path
     style="fill:none;stroke:#000000;stroke-width:2;stroke-linecap:round;stroke-linejoin:round;stroke-miterlimit:6.16041;stroke-dasharray:none;stroke-opacity:1"
     d="M 96.171092,49.688707 970.39233,47.472097"
     id="path-05" />
  <g
     id="g28917-3-7"
     style="display:inline"
     transform="matrix(1.4504872,0,0,1.7953941,-3425.8232,-2109.3149)">
    <path
       style="fill:#000000;stroke:#000000;stroke-width:0.0675486;stroke-linecap:round;stroke-linejoin:round;stroke-miterlimit:6.16041"
       d="m 2514.5509,1335.7812 c -0.3874,-0.1178 -0.8412,0 -1.3705,0.3703 -1.0887,0.7519 -1.7443,0.4679 -2.2158,-0.9596 -0.3057,-0.9256 -0.2527,-1.1398 0.3951,-1.5952 1.0579,-0.7436 3.0602,-0.3158 3.7759,0.8067 0.6932,1.087 0.4378,1.6887 -0.5847,1.3778 z m -11.1732,1.2405 c -0.7548,-0.171 -1.1357,-0.7333 -1.0562,-1.5595 0.099,-1.0249 1.6821,-1.9444 2.8219,-1.6388 1.1368,0.3047 1.2589,1.0901 0.2406,1.5475 -0.4134,0.1857 -0.8425,0.6123 -0.9534,0.9481 -0.2432,0.7366 -0.4105,0.8482 -1.0529,0.7027 z m 4.3062,-2.5954 c -0.6334,-0.1435 -1.1653,-1.09 -0.9607,-1.7096 0.3594,-1.0888 2.0165,-1.1764 2.4686,-0.1305 0.2442,0.5653 -0.9112,1.9752 -1.5079,1.8401 z m 15.7314,-10.0947 c -1.3001,-0.2945 -1.6328,-1.984 -0.5889,-2.9906 1.1115,-1.0717 3.0701,-0.3321 2.2627,0.8544 -0.2108,0.3098 -0.5679,0.9412 -0.7934,1.403 -0.3082,0.6311 -0.527,0.8132 -0.8804,0.7332 z m -12.2895,6.5827 c -0.6219,-0.1891 -1.0779,-0.9497 -0.9629,-1.6061 0.1356,-0.7744 2.1222,-1.044 2.7346,-0.3711 0.766,0.8418 -0.5769,2.3405 -1.7717,1.9772 z m -11.6503,4.9808 c -0.5474,-0.044 -1.0626,-0.3675 -2.0582,-1.2908 -0.7307,-0.6771 -1.6064,-1.3655 -1.9465,-1.5294 -0.3402,-0.1639 -0.731,-0.5219 -0.8683,-0.7956 -0.3632,-0.7231 0.5481,-1.1337 1.4991,-0.6754 0.8972,0.4324 1.3933,0.2463 1.4898,-0.559 0.1008,-0.8406 0.8408,-0.8182 1.6304,0.049 0.7042,0.7738 2.5018,1.0664 3.4047,0.5541 0.8578,-0.4867 0.08,-2.5586 -1.1906,-3.1707 -1.3445,-0.6479 -0.993,-1.7571 0.4334,-1.3684 0.6516,0.1775 1.527,0.8855 2.3355,1.8885 1.3218,1.6398 -0.6492,4.5785 -2.9362,4.3777 -1.0599,-0.093 -1.4244,0.193 -0.9336,0.7324 0.2963,0.3257 0.3232,1.5893 0.037,1.7516 -0.092,0.052 -0.4956,0.068 -0.8971,0.035 z m 20.6744,-12.4623 c -0.9611,-0.2176 -1.6237,-2.4347 -0.8576,-2.8694 0.5612,-0.3184 1.9046,0.2049 1.9346,0.7535 0.012,0.2292 -0.097,0.4848 -0.2444,0.5682 -0.1468,0.083 -0.3356,0.4789 -0.4197,0.8791 -0.084,0.4001 -0.2694,0.7011 -0.4128,0.6686 z m -27.4915,14.2022 c -3.953,0.2817 -7.1921,-5.9879 -3.5576,-6.8859 0.8443,-0.2087 1.162,0.4925 0.532,1.174 -0.6803,0.7357 -0.4895,1.7376 0.5666,2.9764 1.3531,1.587 3.6947,1.8903 4.3402,0.5622 0.3449,-0.7097 0.9656,-0.9329 1.367,-0.4917 0.2607,0.2864 -0.9417,2.0225 -1.6457,2.3761 -0.2228,0.112 -0.9439,0.242 -1.6025,0.2889 z m 14.2216,-9.2898 c -0.5744,-0.7706 0.03,-1.8662 0.845,-1.5325 0.3548,0.1452 0.4584,0.4171 0.3792,0.9948 -0.1521,1.1092 -0.6391,1.3231 -1.2242,0.5377 z m 3.1029,-4.2396 c -0.7347,-0.072 -1.043,-0.7067 -0.76,-1.5636 0.215,-0.6509 -0.2828,-1.428 -1.1437,-1.7857 -0.3858,-0.1603 -0.491,-0.1116 -0.5556,0.2574 -0.097,0.5543 -1.2525,1.0671 -1.7167,0.762 -0.1892,-0.1239 -0.1354,-0.5406 0.1221,-0.9498 0.9541,-1.5168 0.1318,-4.4445 -1.1975,-4.2635 -0.6725,0.091 -1.0257,-0.4835 -1.1848,-1.9287 -0.1855,-1.6839 -0.1148,-1.7142 2.4836,-1.0654 2.578,0.6437 3.1129,1.2129 1.6342,1.739 -0.8035,0.2858 -0.8813,0.4041 -0.6629,1.009 0.483,1.3376 1.4457,1.8159 4.2192,2.0961 0.7998,0.081 1.509,0.316 1.7488,0.5792 0.4217,0.4633 0.3066,0.5347 -1.7179,1.0658 -0.8618,0.2261 -0.3421,1.0351 0.87,1.3602 1.1843,0.3175 1.2383,0.999 0.1109,1.4 -0.5301,0.1886 -1.1197,0.5687 -1.3101,0.8446 -0.2382,0.345 -0.5315,0.4835 -0.9396,0.4433 0,1e-4 0,1e-4 0,1e-4 z m 11.2365,-7.7328 c -0.4991,0.015 -1.1263,0.1524 -1.3939,0.3042 -0.6968,0.3954 -1.7247,0.056 -1.5816,-0.5225 0.4249,-1.7171 -0.6471,-2.6403 -1.8868,-1.6251 -1.3273,1.0868 -2.8286,0.4271 -1.6164,-0.7102 0.6534,-0.6129 0.7522,-2.5517 0.1541,-3.0254 -0.362,-0.2869 -0.604,-0.2455 -1.3019,0.2223 -0.6472,0.4339 -0.9707,0.506 -1.3203,0.2947 -0.5508,-0.3331 -0.4086,-1.1939 0.2602,-1.5734 0.5732,-0.3252 0.1331,-2.1784 -0.7471,-3.1455 -1.041,-1.144 0.122,-1.3225 1.7373,-0.2667 0.6974,0.4557 1.7171,0.942 2.266,1.0807 1.0969,0.2769 1.2355,0.6388 0.4767,1.2447 -1.1384,0.9091 1.7487,2.9198 3.5672,2.4843 0.3705,-0.089 0.6591,-0.1266 0.9333,-0.1029 0.3586,0.032 0.6928,0.1683 1.1531,0.4342 1.4379,0.831 1.3645,1.3818 -0.1712,1.5779 -0.1808,0.024 -0.3819,0.043 -0.6033,0.056 -1.1907,0.075 -1.2117,0.099 -0.799,0.9024 0.1986,0.3868 0.54,0.6124 1.1265,0.7455 1.0491,0.2376 1.2777,0.4793 1.006,1.0635 -0.2634,0.5666 -0.1749,0.527 -1.2588,0.5608 -1e-4,0 -1e-4,0 -1e-4,0 z m -21.5082,9.6896 c -0.423,-0.1582 -0.9146,-0.4478 -1.0926,-0.6434 -0.4336,-0.4765 -1.0331,-0.537 -2.4117,-0.2433 -1.4366,0.3061 -2.6174,0.087 -3.2435,-0.6006 -1.3693,-1.5048 -3.2933,-0.8808 -3.2987,1.0698 0,0.8546 -0.1884,1.4101 -0.5396,1.609 -0.6207,0.3522 -0.6486,0.8271 -0.1039,1.7713 0.4307,0.7466 -0.09,1.2831 -0.818,0.8429 -1.4936,-0.9032 -1.8167,-2.2014 -0.908,-3.6496 0.2549,-0.4064 0.4696,-1.1351 0.4771,-1.6193 0.022,-1.4349 0.2447,-1.6756 1.8853,-2.0345 1.4889,-0.3258 2.2134,-0.2033 4.1228,0.6972 0.9038,0.4262 1.0412,0.4087 2.4811,-0.3168 1.5244,-0.768 1.5244,-0.768 2.9039,0.6423 1.9509,1.9943 2.1926,3.0913 0.5454,2.475 z m 37.3031,-24.4624 c -1.1247,-0.3577 -1.3871,-2.3676 -0.2838,-2.8507 0.6713,-0.294 2.4337,0.3583 2.9108,1.0646 0.3359,0.4972 0.2703,0.5864 -0.5396,0.8717 -0.5032,0.1771 -1.0657,0.4886 -1.2621,0.6945 -0.2046,0.2145 -0.5511,0.3071 -0.8253,0.2199 z m -33.7496,16.3563 c -0.7801,-0.033 -0.8944,-0.7648 -0.1563,-1.0013 0.7219,-0.2314 1.2718,0.1615 0.9284,0.6633 -0.2679,0.3916 -0.2001,0.3619 -0.7721,0.338 0,0 0,0 0,0 z m 26.5108,-16.0483 c -0.9719,-0.1088 -1.4766,-0.6488 -1.0071,-1.1115 0.3615,-0.3563 -0.2167,-1.3569 -0.8162,-1.3893 -0.4409,-0.024 -3.0106,-1.823 -3.1707,-2.2297 -0.2281,-0.5794 0.6794,-0.8657 1.7008,-0.522 1.2167,0.4093 1.4149,0.2833 1.0427,-0.7093 -0.4103,-1.0943 0.4656,-1.4088 1.1921,-0.3956 2.8838,4.0081 3.0033,4.3788 2.8086,5.2074 -0.2321,0.9882 -0.6614,1.2721 -1.7503,1.1501 0,-1e-4 1e-4,-1e-4 1e-4,-1e-4 z m 3.4977,-1.731 c -0.8361,-0.235 -1.073,-0.5239 -0.999,-1.2752 0.051,-0.5203 -0.038,-0.6537 -0.7226,-1.0165 -1.5158,-0.8043 -1.1799,-1.9044 0.6724,-1.5424 2.1565,0.4215 3.4838,-1.2933 -0.2621,-2.2687 -1.5098,-0.3931 -1.805,-1.0798 -0.4935,-1.402 1.3479,-0.3312 3.3122,0.3846 4.1538,1.5071 0.9178,1.224 0.8954,1.8198 0.037,2.8795 -0.5912,0.7299 -0.6447,1.0562 -0.3188,1.5977 0.507,0.8424 -0.9075,1.8466 -2.0673,1.5206 0,0 1e-4,0 1e-4,-1e-4 z m -10.4636,2.9645 c -2.3339,-0.5384 -4.1764,-3.1623 -3.3812,-4.8981 0.4598,-1.0037 1.7967,-0.046 1.6584,1.1335 -0.078,0.6622 0.05,0.9372 0.6383,1.4034 1.2244,0.9695 1.7702,0.9719 3.3525,0.055 1.6869,-0.9772 2.2571,-0.6013 1.4799,0.7913 -0.7493,1.3427 -2.1018,1.8942 -3.7479,1.5145 z m -47.3246,23.3281 c -0.6387,-0.1635 -0.8383,-0.1098 -1.0166,0.2735 -0.3034,0.6521 -1.7008,1.0596 -2.1033,0.6134 -0.3938,-0.4328 -0.3617,-2.7677 0.038,-2.9947 0.1612,-0.091 0.6697,-0.046 1.13,0.1007 0.4602,0.1469 1.361,0.311 2.0019,0.3648 1.3649,0.1144 1.8348,0.6429 1.197,1.3465 -0.3477,0.3836 -0.6367,0.4522 -1.2474,0.2959 1e-4,-1e-4 1e-4,-1e-4 2e-4,-1e-4 z m 21.4297,-12.2493 c -0.2962,-0.09 -0.8246,-0.047 -1.1743,0.096 -0.8659,0.354 -1.5802,-0.3066 -1.4781,-1.3671 0.044,-0.4526 -0.062,-0.978 -0.2342,-1.1674 -0.5882,-0.6464 -0.5398,-1.6643 0.096,-2.0252 0.4969,-0.282 0.9193,-0.2194 2.2779,0.3374 1.958,0.8024 2.3597,1.347 1.2484,1.6924 -0.7088,0.2203 -0.7201,0.2957 -0.1881,1.2527 0.5838,1.0505 0.3908,1.4666 -0.548,1.1811 z m -8.0761,3.7581 c -0.8796,-0.1124 -0.9508,-0.077 -1.4951,0.736 -0.7221,1.0791 -2.376,1.536 -3.309,0.9141 -1.675,-1.1167 -2.5279,-3.0384 -1.5857,-3.573 0.628,-0.3563 0.6686,-0.3244 1.0077,0.792 0.3886,1.2793 1.4921,1.7683 2.4553,1.0873 0.6463,-0.4571 0.65,-0.5712 0.051,-1.5911 -0.7284,-1.2408 -0.5009,-1.6986 0.6863,-1.3804 0.4369,0.1171 1.0614,0.062 1.3878,-0.1237 0.7456,-0.4231 1.1047,-0.1899 1.7241,1.1194 0.8556,1.8089 0.6667,2.2224 -0.9228,2.0194 0,0 10e-5,0 10e-5,0 z m 3.2461,-3.8877 c -0.1759,-0.1243 -0.8084,-0.5608 -1.4056,-0.9702 -1.1821,-0.8106 -1.6141,-1.4705 -1.139,-1.7401 0.6364,-0.361 3.0968,1.1436 3.3585,2.0539 0.1693,0.5887 -0.3365,0.9945 -0.8139,0.6564 z m 26.3276,-17.2831 c -1.4617,-0.8273 -1.7892,-1.2942 -1.5989,-2.3144 0.2493,-1.3373 0.7144,-1.763 1.6828,-1.5553 0.7805,0.1676 1.4305,0.9294 0.9972,1.1639 -0.406,0.2198 -0.2528,1.1986 0.2722,1.7758 0.5093,0.5597 0.4572,1.0522 -0.1349,1.379 -0.1188,0.066 -0.6671,-0.1369 -1.2185,-0.4489 10e-5,0 10e-5,-10e-5 10e-5,-10e-5 z m 11.869,-5.7577 c -0.1613,-0.04 -0.5768,-0.4119 -0.9232,-0.8256 -0.5044,-0.6024 -0.8526,-0.7592 -1.7296,-0.7768 -2,-0.04 -2.1972,-1.4964 -0.057,-2.0473 2.3175,-0.5965 5.3338,2.6976 3.5999,3.4588 -0.3285,0.1442 -0.7282,0.2305 -0.89,0.1909 z m -54.2905,27.3167 c -1.197,-0.2711 -1.5808,-1.9853 -0.5726,-2.5574 0.487,-0.2763 1.8027,0.059 2.2772,0.5805 0.4642,0.5102 -0.9481,2.1482 -1.7046,1.9769 z m 5.3809,-3.5461 c -1.2164,-0.2755 -1.806,-2.342 -0.8267,-2.8976 0.4842,-0.2748 0.5226,-0.2266 1.0941,1.3693 0.4458,1.2454 0.3711,1.6729 -0.2674,1.5283 z m 7.7079,-5.0522 c -1.1637,-0.9024 -1.2536,-0.9334 -2.0421,-0.7049 -1.2128,0.3515 -1.8411,0.048 -1.5742,-0.7604 0.4637,-1.4041 2.9296,-1.4248 4.1942,-0.035 1.1425,1.2555 0.6741,2.4713 -0.5779,1.5003 z m 34.0733,-20.7577 c -2.0846,-0.5924 -3.1492,-0.2549 -3.3277,1.0142 -0.1868,1.328 -0.8747,1.4313 -1.6346,0.2292 -1.419,-2.2445 2.349,-4.234 5.7729,-2.5853 2.0875,1.0052 1.3077,1.9439 -0.8106,1.3419 z m -41.7446,21.5537 c -0.6046,-0.1369 -1.1666,-1.0836 -0.9682,-1.6308 0.5316,-1.4659 2.1042,-2.0582 3.2389,-1.22 0.8723,0.6442 0.8446,1.2651 -0.055,1.2323 -0.8926,-0.033 -1.479,0.3366 -1.4478,0.9112 0.027,0.5001 -0.3104,0.811 -0.7681,0.7073 0,0 0,0 0,0 z m 9.798,-10.7445 c -0.6717,-0.1529 -0.8016,-0.6734 -0.348,-1.3945 0.3359,-0.534 0.3513,-0.8561 0.052,-1.0928 -0.4377,-0.3456 -0.706,-0.2457 -1.4084,0.5248 -0.2526,0.277 -0.6749,0.4207 -1.1101,0.3777 -0.9186,-0.091 -0.9411,-0.5274 -0.1157,-2.2422 0.8072,-1.6768 0.7876,-1.8342 -0.3533,-2.8437 -0.9017,-0.7978 -0.9834,-0.8188 -1.6718,-0.4282 -0.9066,0.5144 -1.2641,0.1669 -1.1556,-1.1236 0.045,-0.5336 -0.1037,-1.5031 -0.3299,-2.1545 -0.4865,-1.401 -0.1127,-1.7334 1.2304,-1.0938 0.5387,0.2565 1.6901,0.7147 2.5586,1.0183 1.8107,0.6328 2.1779,1.2996 0.9639,1.7501 -0.7118,0.2641 -0.6186,0.6929 0.3955,1.8173 0.4959,0.545 2.3981,0.9811 4.5875,1.0461 1.7193,0.051 1.8061,0.6451 0.198,1.3533 -1.415,0.6232 -1.5465,0.8824 -0.5239,1.0356 0.6027,0.09 1.1297,0.5288 1.0075,0.8384 -0.1436,0.3632 -3.6726,2.681 -3.9766,2.6117 z m 73.023,27.0903 c -0.092,-0.2544 -0.3731,-0.3429 -0.8302,-0.252 -0.9115,0.1813 -1.0413,-0.2734 -0.3778,-1.6653 0.4235,-0.8884 0.5837,-1.055 1.1699,-1.168 0.9858,-0.19 1.6421,1.0223 1.2118,2.2218 -0.4218,1.1764 -0.9338,1.5232 -1.1737,0.8635 z m -4.8131,-3.0434 c -0.2114,-0.4027 -0.1541,-1.0391 0.2173,-1.7479 0.4589,-0.8758 1.553,-1.1529 1.8575,-0.4577 0.2972,0.6785 -0.07,1.397 -0.6318,1.4365 -0.2375,0.017 -0.5806,0.242 -0.7648,0.5023 -0.4019,0.5675 -0.4959,0.6141 -0.6782,0.2668 z m 2.702,-0.7571 c -0.1408,-0.3542 0.1319,-1.3691 0.5304,-1.8213 0.2459,-0.2789 0.4935,-0.3901 0.6909,-0.3706 0.4564,0.036 0.732,0.523 0.4541,1.2061 -0.1419,0.3485 -0.7502,0.7712 -1.21,0.9623 -0.2282,0.1178 -0.415,0.1507 -0.4655,0.024 z m 15.4283,-0.5737 c -0.4982,-0.907 0.747,-2.2911 2.2572,-2.4258 1.6993,-0.1516 2.0683,1.4798 0.6007,1.8407 -0.4138,0.1018 -1.1613,0.3393 -1.7078,0.5446 -0.732,0.2749 -1.0141,0.288 -1.1501,0.041 z m -11.7223,-0.9984 c -0.1853,-0.4125 0.08,-1.2281 0.5834,-1.7084 0.5913,-0.5646 1.8573,0.083 1.695,0.9039 -0.2074,1.0498 -1.9479,1.54 -2.2784,0.8045 z m -7.5806,0.031 c -0.2343,-0.2215 -0.3413,-0.6685 -0.5065,-1.831 -0.123,-0.8634 -0.3344,-1.7387 -0.4686,-2.009 -0.1261,-0.2539 -0.2195,-0.7071 -0.2001,-0.9988 0.05,-0.7624 0.7355,-0.8851 1.0953,-0.1453 0.3305,0.6799 0.6544,0.6771 1.0467,-0.018 0.4126,-0.7308 0.8201,-0.4419 0.8457,0.5971 0.023,0.9325 0.7498,1.8128 1.4112,1.6905 0.6285,-0.1162 1.3487,-2.1944 1.0026,-3.2 -0.3107,-0.9033 0.3111,-2.0613 0.9616,-1.0165 0.2549,0.4094 0.3082,1.3437 0.1367,2.5166 -0.2925,2.0025 -2.6966,3.5679 -3.5119,2.7458 -0.4548,-0.4585 -0.7415,-0.2988 -0.735,0.3377 0,0.3864 -0.4946,1.5394 -0.669,1.5892 -0.06,0.017 -0.2411,-0.1 -0.409,-0.2587 z m 18.1792,-1.4104 c -0.373,-0.6602 1.0934,-2.6117 1.9335,-2.5112 0.6115,0.073 0.9688,1.1717 0.5109,1.5761 -0.1912,0.1688 -0.4781,0.2908 -0.6367,0.2712 -0.1598,-0.02 -0.61,0.1606 -1.0004,0.4025 -0.3901,0.2416 -0.7517,0.3597 -0.8073,0.2614 z m -21.9932,0.9754 c -1.8378,-0.7242 -3.237,-7.6065 -0.239,-7.4311 0.631,0.037 0.59,0.7852 0,1.2465 -0.6563,0.5107 -0.7665,1.4952 -0.4526,2.9477 0.4102,1.8984 1.5546,2.7374 2.254,1.7499 0.3971,-0.5605 0.8017,-0.5675 0.8616,-0.043 0.037,0.323 -1.1248,1.5949 -1.5357,1.7123 -0.1393,0.04 -0.536,-0.044 -0.8857,-0.182 z m 10.851,-3.4655 c 0.1775,-0.8487 1.2391,-1.5567 1.4864,-0.9038 0.1028,0.2715 -0.027,0.5329 -0.4585,0.9712 -0.821,0.8345 -1.2154,0.8296 -1.0279,-0.067 z m 4.7078,-2.0536 c -0.3789,-0.3971 -0.106,-1.0398 0.707,-1.5743 0.6174,-0.4059 0.9074,-1.2426 0.6298,-1.9295 -0.1228,-0.3074 -0.2286,-0.3196 -0.5451,-0.061 -0.4774,0.3895 -1.5738,0.2571 -1.6478,-0.1883 -0.031,-0.1843 0.3018,-0.4939 0.768,-0.7001 1.7109,-0.7566 3.4808,-3.4068 2.4012,-3.9129 -0.5394,-0.2528 -0.3601,-0.8742 0.6532,-2.0739 1.1659,-1.3808 1.3044,-1.398 2.6367,0.4216 1.3338,1.822 1.1294,2.483 -0.2686,2.1412 -0.7825,-0.1912 -0.9329,-0.1354 -1.2634,0.4325 -0.7386,1.2697 -0.4414,2.0856 1.1022,3.6986 0.4467,0.4667 0.7007,1.0037 0.6349,1.322 -0.1155,0.5588 -0.2497,0.5344 -1.936,-0.072 -0.7245,-0.2607 -1.0189,0.6181 -0.5413,1.4573 0.4741,0.8326 -0.056,1.3562 -1.029,1.1149 -0.4648,-0.1152 -1.0993,-0.1048 -1.4213,0.019 -0.4003,0.1541 -0.6734,0.1253 -0.8839,-0.095 0,0 -1e-4,0 -1e-4,0 z m 13.2416,0.1417 c -0.3292,-0.2692 -0.8456,-0.5219 -1.1492,-0.5639 -0.7833,-0.1083 -1.1386,-0.91 -0.5365,-1.2392 1.7576,-0.9612 1.9677,-2.2208 0.2218,-2.1833 -1.517,0.033 -2.5071,-1.2193 -0.4332,-1.3889 0.9567,-0.078 2.7643,-1.3891 2.7847,-2.0513 0.012,-0.4021 -0.1901,-0.5122 -1.0817,-0.568 -0.8256,-0.052 -1.1085,-0.1747 -1.1629,-0.518 -0.086,-0.5396 0.7694,-1.0775 1.5716,-0.9743 0.6875,0.088 2.0537,-1.4575 2.3024,-2.6328 0.2877,-1.36 1.302,-0.8871 1.4755,0.802 0.073,0.7097 0.3367,1.6384 0.5835,2.044 0.5006,0.8222 0.2509,1.1457 -0.8163,1.1311 -1.6062,-0.022 -1.49,3.005 0.1058,3.7469 0.7497,0.3485 0.9655,0.6367 1.0642,1.4226 0.1964,1.5632 -0.5326,1.778 -2.01,0.6742 -0.8391,-0.6268 -0.8753,-0.6189 -1.3375,0.1678 -0.2228,0.3791 -0.2075,0.7276 0.046,1.1507 0.4551,0.7584 0.376,1.0527 -0.3262,1.3009 -0.6825,0.2413 -0.5862,0.2643 -1.3017,-0.3205 0,0 -1e-4,0 -1e-4,0 z m -20.4364,-2.8448 c -0.16,-0.2938 -0.303,-0.7361 -0.3071,-0.97 -0.01,-0.5775 -0.3493,-0.8633 -1.3909,-1.0957 -1.0853,-0.2423 -1.7808,-0.8296 -1.8994,-1.6604 -0.2588,-1.8124 -2.032,-1.8936 -2.8241,-0.072 -0.3426,0.7884 -0.6804,1.2488 -1.0016,1.3324 -0.5697,0.1481 -0.7489,0.5866 -0.6874,1.6216 0.05,0.8352 -0.475,1.1565 -0.8283,0.5641 -0.7441,-1.2482 -0.6506,-2.56 0.5505,-3.6704 0.3274,-0.3027 0.7725,-0.935 0.9632,-1.3755 0.5709,-1.3183 0.8844,-1.4963 2.3106,-1.3052 1.2709,0.1703 1.8332,0.5473 2.7297,2.0055 0.4348,0.7075 0.5087,0.7153 1.8901,0.615 1.4419,-0.1047 1.4837,-0.074 1.5399,1.6645 0.084,2.6075 -0.4882,3.3685 -1.0452,2.346 z m 45.04,1.7239 c -0.5362,-0.8707 1.0269,-2.478 2.2021,-2.2761 0.7069,0.1214 1.4721,1.5127 1.2591,2.2923 -0.15,0.5487 -0.2711,0.5918 -1.1222,0.3918 -0.5244,-0.1233 -1.2152,-0.1837 -1.5339,-0.1337 -0.3356,0.053 -0.6751,-0.063 -0.8051,-0.2743 z m -37.6026,-6.9825 c -0.5107,-0.3814 -0.075,-1.0295 0.6358,-0.8678 0.6932,0.1577 0.7614,0.728 0.1518,0.9604 -0.4811,0.1834 -0.4061,0.1925 -0.7876,-0.092 0,0 0,0 0,-10e-5 z m 32.1652,3.2174 c -0.5693,-0.6274 -0.4088,-1.2851 0.3252,-1.3416 0.5675,-0.044 1.0801,-1.0677 0.7142,-1.4248 -0.2801,-0.2732 -0.3189,-2.9475 -0.046,-3.3261 0.3825,-0.53 1.2222,-0.2114 1.5671,0.5899 0.4143,0.9622 0.6591,0.9763 1.2991,0.076 0.7185,-1.0109 1.5207,-0.7317 1.1058,0.3641 0.038,-0.091 -0.3055,0.8056 -0.2704,0.7135 -1.4148,3.7563 -1.5972,4.0466 -2.4569,4.5197 -0.2573,0.1416 -0.4854,0.2456 -0.6927,0.3113 -0.6297,0.1997 -1.0678,0.045 -1.5459,-0.4819 0,0 0,0 10e-5,0 z m 3.9684,0.7114 c -0.3806,-0.6239 -0.2828,-0.9587 0.4236,-1.4601 0.4906,-0.3483 0.5415,-0.4927 0.3972,-1.1211 -0.3289,-1.4356 0.8962,-1.9529 1.7851,-0.7636 1.477,1.9765 3.0271,0.2864 1.7598,-1.8023 -0.6518,-1.0741 -0.2239,-1.706 0.8653,-1.2873 1.1179,0.4296 1.797,1.936 1.4438,3.1983 -0.3866,1.3812 -0.8693,1.8376 -2.3461,2.1958 -1.02,0.2475 -1.3347,0.4527 -1.5659,1.0279 -0.356,0.8845 -2.2243,0.8953 -2.7629,0.012 0,0 0,0 10e-5,10e-5 z m -9.8102,-3.892 c -1.0572,-1.7252 0.1686,-4.5722 2.3354,-5.2733 1.2395,-0.4011 1.2485,1.0139 0.044,1.7325 -0.6723,0.401 -0.8453,0.6594 -0.8894,1.3178 -0.092,1.3635 0.2723,1.6945 2.1766,1.9833 1.9854,0.3011 2.0888,0.8789 0.255,1.3913 -1.7452,0.4876 -3.1754,0.066 -3.9214,-1.1516 z m -51.7735,-1.0985 c -0.073,-0.036 -0.139,-0.067 -0.1998,-0.092 0,0 0,0 0,0 -0.3834,-0.1569 -0.5508,-0.099 -0.7398,0.2006 -0.3685,0.5831 -1.6617,0.7968 -1.965,0.3096 -0.3027,-0.4815 0.046,-2.7535 0.4797,-2.9327 0.1666,-0.069 0.6315,0.045 1.0296,0.2555 0.184,0.097 0.456,0.2141 0.7475,0.3267 0.3304,0.1286 0.6973,0.2562 0.9935,0.3401 1.1997,0.3401 1.4561,0.9484 0.7806,1.5143 -0.3729,0.3125 -0.6252,0.3294 -1.1265,0.079 1e-4,-10e-5 2e-4,-10e-5 2e-4,-10e-5 z m 23.4521,-4.8528 c -0.1732,-0.2068 -0.6277,-0.4028 -1.0123,-0.4346 -0.9257,-0.077 -1.1161,-0.9279 -0.2901,-1.7806 0.3495,-0.3608 0.6307,-0.8454 0.614,-1.0784 -0.057,-0.796 0.7139,-1.6271 1.5581,-1.6342 0.6466,-0.01 1.0159,0.2435 1.7587,1.3345 0.1011,0.1485 0.191,0.289 0.2697,0.421 0.746,1.2785 0.5193,1.7493 -0.5157,1.5296 10e-5,0 -0.016,0 -0.016,0 -0.7368,-0.1544 -0.8016,-0.085 -1.0748,0.9271 -0.3058,1.1321 -0.7544,1.3602 -1.2913,0.719 z m -8.9875,0.1055 c -0.6861,-0.394 -0.7915,-0.3888 -1.6521,0.181 -1.1344,0.7513 -2.7412,0.7012 -3.3041,-0.1362 -1.0108,-1.5038 -1.0681,-3.5408 0.1068,-3.7838 0.771,-0.1595 0.7853,-0.1091 0.5899,1.0238 -0.2268,1.3137 0.575,2.0589 1.7298,1.7345 0.7932,-0.2229 0.8596,-0.3191 0.8295,-1.4449 -0.036,-1.3513 0.4099,-1.7308 1.3543,-1.0345 0.3398,0.2505 0.9437,0.4132 1.3429,0.3614 0.9251,-0.12 1.1077,0.2278 0.9014,1.6097 -0.2887,1.9316 -0.6663,2.1965 -1.8984,1.489 0,0 0,0 0,0 z m 5.0499,-2.2478 c -0.089,-0.2143 -0.3305,-0.7677 -0.627,-1.3934 -0.5509,-1.1628 -0.5693,-1.9074 0.065,-1.957 0.8345,-0.065 2.0705,2.2316 1.6947,3.1158 -0.2442,0.5749 -0.9351,0.7116 -1.133,0.2346 z m 35.2622,1.2596 c -0.2052,-1.4184 0.01,-1.9198 1.1007,-2.4939 1.4295,-0.7494 2.1368,-0.7646 2.5763,-0.063 0.3532,0.5638 0.067,1.4547 -0.4311,1.3637 -0.4685,-0.085 -1.2816,0.6636 -1.4742,1.3581 -0.1864,0.6733 -0.6782,0.9769 -1.3785,0.8509 -0.1405,-0.025 -0.3162,-0.482 -0.3934,-1.0156 0,0 10e-5,10e-5 10e-5,10e-5 z m 12.6571,2.4935 c -0.067,-0.1108 -0.01,-0.5936 0.1266,-1.0731 0.1994,-0.6982 0.1214,-0.9851 -0.3926,-1.4429 -0.4149,-0.3696 -0.5446,-0.7417 -0.4675,-1.0448 0,0 0,0 0,0 0.039,-0.1483 0.1263,-0.2798 0.2521,-0.3867 0,0 0,0 0,0 0.3714,-0.312 1.0849,-0.4132 1.9086,-0.099 1.7168,0.6546 1.0779,4.656 -0.7176,4.3487 -0.3232,-0.055 -0.6427,-0.1914 -0.7096,-0.3021 z m -64.9963,-4.5586 c -1.082,-0.4874 -0.9873,-2.2268 0.28,-2.5923 0.613,-0.1768 1.8224,0.4265 2.101,1.0345 0.2736,0.5975 -1.7343,1.8491 -2.381,1.5578 z m 6.6988,-2.1398 c -1.063,-0.5845 -0.77,-2.6913 0.5585,-2.9416 0.6495,-0.1224 0.652,-0.06 0.4401,1.5874 -0.1661,1.2902 -0.4377,1.6627 -0.9986,1.3542 z m 10.4382,-1.9846 c -0.5257,-1.2383 -0.628,-1.3116 -1.5601,-1.4092 -1.4331,-0.1501 -1.931,-0.6316 -1.1236,-1.2585 1.3837,-1.0746 4.0137,-0.097 4.2831,1.6156 0.2666,1.6956 -1.0972,2.2354 -1.5994,1.0521 z m 45.3274,3.5228 c -0.7129,-1.5312 -1.6544,-1.8918 -2.9217,-1.1176 -1.3247,0.8094 -1.8607,0.4813 -1.2396,-0.7687 1.2415,-2.4986 5.288,-1.3818 5.7982,1.361 0.3273,1.7595 -0.8909,2.1277 -1.6369,0.5253 z m -53.5958,-5.4925 c -0.5598,-0.306 -0.6666,-1.3503 -0.1472,-1.798 1.3997,-1.2068 3.5226,-1.2188 4.2194,-0.064 0.5395,0.894 0.092,1.4172 -0.814,1.0906 -0.9256,-0.3336 -1.7679,-0.1796 -2.0582,0.3563 -0.2531,0.4674 -0.7755,0.6476 -1.2,0.4155 0,0 0,0 0,0 z m 18.1836,-5.2799 c -0.5945,-0.4628 -0.3057,-0.9477 0.8577,-1.2696 0.1377,-0.038 0.2615,-0.076 0.3719,-0.1144 0,0 0,0 0,0 0.5416,-0.2003 0.7386,-0.414 0.6508,-0.7023 -0.053,-0.1753 -0.1338,-0.2977 -0.2758,-0.3733 -0.2861,-0.1391 -0.8071,-0.1207 -1.7769,0.038 -0.536,0.088 -1.1463,-0.012 -1.6121,-0.2619 -0.9476,-0.509 -0.7009,-0.9136 1.8525,-1.8397 2.4904,-0.9033 2.6761,-0.978 2.2128,-2.4015 -0.3582,-1.1009 -0.4631,-1.1736 -1.697,-1.2283 -1.596,-0.071 -1.806,-0.5131 -0.4362,-1.4896 0.5515,-0.3931 1.2939,-1.2413 1.6202,-1.864 0.7028,-1.3419 1.5693,-1.4161 2.7356,-0.154 0.064,0.07 0.1407,0.1492 0.2261,0.2364 0,0 0,0 0,0 0.4173,0.492 1.2637,1.4228 1.8155,2.0001 1.4634,1.5313 1.1419,2.203 -0.5595,1.857 -1.0402,-0.2116 -1.3125,0.1726 -1.2393,1.5861 0.04,0.6837 1.6955,2.0841 3.7888,3.3743 1.6912,1.0424 1.1025,1.4796 -1.0475,1.1063 -1.9879,-0.3451 -2.3047,-0.1972 -1.453,0.4735 0.5126,0.4034 0.6209,1.0221 0.2257,1.1839 -0.3165,0.1297 -4.0614,0.063 -5.5491,-0.054 -0.3952,-0.029 -0.6587,-0.062 -0.7113,-0.103 z m 57.8872,64.2525 c -0.2508,-0.3055 -0.7776,-0.4715 -1.5923,-0.5057 -1.6813,-0.071 -2.0008,-0.6574 -1.1238,-1.958 0.5707,-0.8463 0.8097,-0.97 1.7978,-0.9371 1.0117,0.034 1.9486,0.6115 2.4248,1.3418 0.2764,0.4277 0.3927,0.9104 0.2635,1.3664 -0.2668,0.9405 -0.803,1.3308 -1.3435,1.0551 0,0 0,0 0,0 -0.1442,-0.074 -0.2882,-0.1941 -0.4265,-0.3625 z m -10.9548,-5.5302 c -0.4729,-0.5607 -0.2606,-1.1769 0.5736,-1.7115 1.0297,-0.6619 3.1907,-0.4021 3.8706,0.4677 0.6774,0.8666 0.075,1.505 -1.2201,1.2407 -0.5216,-0.1062 -1.2795,-0.052 -1.6839,0.1206 -0.8879,0.3793 -1.1363,0.3596 -1.5382,-0.1171 z m 6.0591,0.6425 c -0.4164,-0.4657 0,-1.4481 0.7347,-1.7774 1.2834,-0.5731 2.8004,0.2836 2.246,1.3048 -0.2987,0.55 -2.585,0.9152 -2.9807,0.4726 z m 22.7457,0.7876 c -0.947,-0.8786 0.1394,-2.3716 1.8654,-2.6619 1.7687,-0.2974 3.093,1.2012 1.3625,1.7805 -0.4264,0.1427 -1.2714,0.4805 -1.8373,0.7332 -0.7857,0.3509 -1.1338,0.3864 -1.3906,0.1482 z m -16.5696,-1.3981 c -0.38,-0.4859 -0.097,-1.2977 0.5849,-1.7175 0.4416,-0.2719 1.2333,-0.1245 1.8521,0.2005 0.5022,0.2627 0.89,0.6463 0.8679,1.0223 -0.037,0.615 -0.9115,1.0055 -1.7835,1.0304 0,0 0,0 0,0 -0.614,0.014 -1.2209,-0.1517 -1.5213,-0.5357 z m -14.3947,-3.0994 c -0.4001,-0.35 -0.5153,-0.8789 -0.444,-2.1016 0.052,-0.8949 0.01,-1.8896 -0.1053,-2.1987 -0.1126,-0.3124 -0.082,-0.788 0.066,-1.0581 0.3926,-0.7137 1.4755,-0.4682 1.7933,0.401 0.3006,0.8221 0.8683,0.9795 1.6869,0.4702 0.8534,-0.531 1.4162,-0.093 1.2492,0.9737 -0.149,0.9515 1.0313,2.1922 2.2511,2.3449 1.1585,0.145 2.3867,-1.7847 1.9158,-2.9403 -0.5129,-1.259 0.8104,-1.7821 1.585,-0.7372 0.3649,0.4925 0.4425,1.4964 0.2072,2.674 -0.3839,1.922 -4.696,2.9357 -6.4077,1.4474 -0.7765,-0.6751 -1.3356,-0.6907 -1.4378,-0.025 -0.062,0.4012 -1.2122,1.3028 -1.5989,1.249 -0.1237,-0.017 -0.467,-0.2418 -0.7613,-0.4994 z m 28.7558,2.1628 c -0.6793,-0.6541 0.5561,-2.7192 1.5692,-2.6815 0.7475,0.028 1.5122,1.1023 1.099,1.5511 -0.1725,0.1875 -0.4753,0.3352 -0.6731,0.3282 -0.1969,-0.01 -0.6844,0.2115 -1.0835,0.4839 -0.3993,0.2728 -0.8105,0.4155 -0.9116,0.3183 z m -35.7703,-4.9789 c -3.4592,-2.2499 0.4464,-8.2319 3.7878,-6.8088 0.8203,0.3494 0.4106,1.0186 -0.7022,1.117 -1.1979,0.1058 -2.0004,0.9006 -2.3729,2.3696 -0.4758,1.8767 1.0275,3.4831 2.7932,2.9431 0.934,-0.2856 1.6278,-0.078 1.5297,0.4633 -0.065,0.3549 -2.6369,0.842 -3.5222,0.6674 -0.2805,-0.055 -0.9616,-0.3927 -1.5134,-0.7516 z m 20.0385,1.6683 c 0.2038,-0.887 1.6828,-1.342 2.0728,-0.655 0.1716,0.3025 0.021,0.5603 -0.5581,0.9408 -1.1145,0.7325 -1.7208,0.6111 -1.5147,-0.2858 z m 6.3473,-1.4377 c -0.56,-0.4474 -0.2661,-1.0859 0.7015,-1.5805 0.736,-0.3763 0.9775,-1.2271 0.574,-1.9507 -0.089,-0.1602 -0.1654,-0.246 -0.2639,-0.2625 0,0 0,0 0,0 -0.1016,-0.017 -0.2264,0.038 -0.4133,0.1608 -0.5564,0.3648 -1.9496,0.125 -2.0652,-0.3536 -0.047,-0.1942 0.3576,-0.4741 0.919,-0.6407 2.0922,-0.6208 3.8721,-3.2663 2.6705,-3.8279 -0.6097,-0.2851 -0.3958,-0.9014 0.693,-2.0728 0.7782,-0.8385 1.1028,-1.1583 1.5823,-0.8553 0.3028,0.1913 0.6609,0.6254 1.2435,1.3321 1.483,1.7993 1.5045,2.5295 -0.1379,2.1671 -0.8782,-0.1938 -1.0376,-0.1454 -1.3663,0.4279 -0.7224,1.2593 -0.3664,2.1412 1.6974,3.7769 0.5952,0.4717 0.9961,1.0149 0.9807,1.3402 -0.027,0.5653 -0.1837,0.5795 -2.321,-0.063 -0.9008,-0.2709 -1.1633,0.607 -0.4065,1.4909 0.73,0.8527 0.2232,1.4122 -1.0834,1.1258 -0.6082,-0.1334 -1.4334,-0.1562 -1.8289,-0.049 -0.4961,0.1346 -0.8643,0.083 -1.1744,-0.1652 0,0 -10e-5,0 -10e-5,0 z m 15.9464,-0.3222 c -0.4438,-0.226 -1.0939,-0.4192 -1.4422,-0.4276 -0.916,-0.022 -1.5211,-0.7945 -0.9453,-1.1827 1.7334,-1.1685 1.4876,-2.4021 -0.315,-2.2067 -2.2184,0.2404 -2.4465,-1.0864 -0.7851,-1.3509 1.0322,-0.1644 2.6134,-1.6525 2.4916,-2.3204 -0.073,-0.4032 -0.3008,-0.4841 -1.2311,-0.4528 -0.8629,0.029 -1.1823,-0.074 -1.2975,-0.411 -0.1816,-0.5318 0.6096,-1.1382 1.4401,-1.1142 0.7117,0.021 1.7855,-1.664 1.8354,-2.8535 0.06,-1.4305 1.1002,-0.9696 1.5714,0.6129 0.2078,0.6981 0.6521,1.5616 0.9934,1.9344 0.6735,0.7357 0.5252,1.0955 -0.5544,1.2247 -1.6063,0.1923 -0.8193,3.1689 1.0677,3.6774 0.8738,0.2354 1.1731,0.4802 1.5154,1.2383 0.668,1.4798 0.027,1.858 -1.8947,0.9647 -1.0716,-0.498 -1.1056,-0.4943 -1.3714,0.3496 -0.1261,0.4053 -0.01,0.7488 0.3938,1.1336 0.7209,0.6874 0.7417,0.9899 0.055,1.3329 -0.6625,0.3306 -0.5621,0.3424 -1.5266,-0.1487 -10e-5,0 -10e-5,0 -10e-5,0 z m -26.1014,-3.9034 c -0.1925,-0.3519 -0.3175,-0.8345 -0.2805,-1.075 0.09,-0.5864 -0.3246,-0.9621 -1.6523,-1.534 -1.3838,-0.5961 -2.0762,-1.4246 -1.9201,-2.2643 0.3418,-1.8382 -1.6416,-2.4878 -3.436,-1.139 -0.7884,0.5929 -1.4403,0.87 -1.8837,0.8047 -0.7833,-0.1154 -1.2457,0.1948 -1.7211,1.1623 -0.3751,0.7631 -1.2641,0.8325 -1.3907,0.1028 -0.2589,-1.4929 0.7291,-2.5667 2.7286,-3.0392 0.5638,-0.1332 1.3906,-0.5124 1.843,-0.8447 1.3401,-0.9842 1.7115,-1.0212 3.2406,-0.3384 1.3954,0.6231 1.8019,1.1076 2.4259,2.8283 0.2931,0.8085 0.4191,0.8825 2.1668,1.1707 1.8592,0.3067 1.8501,0.2956 1.6695,2.0833 -0.252,2.4957 -1.0255,3.4806 -1.79,2.0825 z m 50.4301,-2.063 c -0.8574,-0.6953 0.01,-2.6041 1.1793,-2.7065 0.7036,-0.061 1.9835,1.0595 2.1014,1.8497 0.083,0.5562 -0.012,0.63 -0.899,0.6571 -0.5447,0.017 -1.2257,0.1333 -1.5073,0.2599 -0.2974,0.1337 -0.6667,0.1081 -0.8744,-0.06 z m -40.4958,-1.9015 c -0.5907,-0.4433 -0.042,-1.0429 0.7317,-0.8291 0.7591,0.2098 0.8682,0.7951 0.1667,0.9883 -0.5446,0.15 -0.4684,0.1636 -0.8984,-0.1591 0,0 0,0 0,0 z m 33.8968,-0.404 c -0.7687,-0.4728 -0.8398,-1.1375 -0.1661,-1.3568 0.5229,-0.1702 0.6442,-1.266 0.1781,-1.5236 -0.3747,-0.207 -1.2828,-2.7345 -1.1491,-3.1661 0.1828,-0.5913 1.0542,-0.4758 1.6396,0.2077 0.707,0.8254 0.9434,0.7746 1.2277,-0.2289 0.3196,-1.1285 1.1538,-1.0562 1.1513,0.086 -0.01,4.6412 0.01,4.92 -0.6908,5.6314 -0.7761,0.7884 -1.3349,0.877 -2.1908,0.3504 1e-4,0 1e-4,0 1e-4,-1e-4 z m 4.0268,-0.2418 c -0.5937,-0.5039 -0.6212,-0.8467 -0.1436,-1.4921 0.3324,-0.4491 0.3245,-0.598 -0.038,-1.1626 -0.8421,-1.314 0.1546,-2.0484 1.3794,-1.1549 2.3692,1.7281 2.6263,-0.6852 0.9635,-2.1408 -0.9873,-0.8643 -0.7995,-1.5623 0.3259,-1.434 1.1573,0.1319 2.3376,1.3871 2.4948,2.6687 0.1722,1.4031 -0.088,1.9604 -1.3235,2.6695 -0.853,0.4898 -1.07,0.7598 -1.0651,1.3638 0.01,0.9242 -1.7463,1.4016 -2.5936,0.6824 0,0 1e-4,0 1e-4,0 z m -10.6513,-1.5687 c -1.5429,-1.4664 -1.1101,-4.4372 0.6705,-5.5417 0.9761,-0.6055 1.4564,0.6888 0.5184,1.6561 -0.5058,0.5215 -0.5967,0.8044 -0.4459,1.4469 0.3125,1.3302 0.7691,1.5834 2.6522,1.4528 1.9365,-0.1342 2.288,0.3772 0.6993,1.279 -1.4903,0.8458 -3.0119,0.7358 -4.0947,-0.2932 z m -55.3479,-7.5261 c -0.2859,-0.4855 -0.4726,-0.5667 -0.9564,-0.414 -0.8227,0.2596 -2.164,-0.2917 -2.017,-0.8279 0.14,-0.521 2.3664,-2.0681 2.8488,-1.9862 0.1956,0.033 0.4989,0.3621 0.6748,0.731 0.1765,0.3702 0.6366,1.0065 1.0279,1.4196 0.8297,0.8762 0.6651,1.5099 -0.4392,1.6107 -0.6007,0.055 -0.8657,-0.069 -1.1391,-0.5332 10e-5,0 10e-5,0 2e-4,0 z m 26.4262,3.5818 c -0.1421,-0.2247 -0.5703,-0.4771 -0.9508,-0.561 -0.9497,-0.2094 -0.8872,-1.0772 0.1005,-1.7945 0.4226,-0.3069 0.7976,-0.7476 0.8361,-0.9787 0.1316,-0.7879 1.039,-1.5062 1.7999,-1.435 0.5978,0.056 0.8372,0.3233 1.3527,1.4512 0.7397,1.6181 0.6065,2.2473 -0.5173,1.9134 -0.7082,-0.2104 -0.7806,-0.1628 -1.2034,0.8276 -0.4625,1.0836 -0.9647,1.2935 -1.4177,0.577 z m -9.2002,-1.7292 c -0.5315,-0.5734 -0.6087,-0.5866 -1.734,-0.3227 -1.4953,0.3507 -3.0895,-0.2754 -3.1779,-1.2399 -0.1588,-1.7318 1.017,-3.5446 2.1486,-3.3845 0.7563,0.107 0.7582,0.1512 -0.02,1.1221 -0.8892,1.1098 -0.5664,2.0802 0.7371,2.1476 0.871,0.045 0.976,-0.035 1.4728,-1.0873 0.6061,-1.2842 1.1738,-1.472 1.7207,-0.5891 0.2024,0.3265 0.6921,0.6343 1.0881,0.684 0.9017,0.1129 0.9519,0.4754 0.231,1.7521 -0.9935,1.7589 -1.5049,1.9554 -2.4668,0.9176 0,0 0,0 0,10e-5 z m 5.7837,-0.9786 c -0.013,-0.1349 -0.096,-0.8962 -0.1568,-1.4663 -0.1313,-1.2287 0.1472,-1.9376 0.716,-1.8735 0.7616,0.086 1.2032,2.5061 0.6,3.3079 -0.3895,0.5179 -1.1103,0.5394 -1.1592,0.032 z m 33.2046,-0.5228 c -0.5454,-1.3181 -0.4566,-1.8469 0.3617,-2.6141 1.0745,-1.0076 1.6738,-1.1728 2.2395,-0.5975 0.4536,0.4615 0.447,1.3745 -0.021,1.3945 -0.4381,0.019 -0.9634,0.9059 -0.9479,1.6111 0.015,0.6833 -0.3431,1.0785 -1.0119,1.1009 -0.1338,0 -0.4153,-0.3982 -0.6209,-0.8949 0,0 10e-5,0 10e-5,0 z m 12.198,-0.4987 c -0.099,-0.089 -0.2143,-0.5605 -0.2557,-1.0492 -0.06,-0.7122 -0.2254,-0.9633 -0.8325,-1.2747 -1.4478,-0.7425 -0.664,-2.0579 0.9898,-1.8642 1.6697,0.1955 2.5838,4.1439 0.8407,4.2996 -0.3096,0.028 -0.6437,-0.023 -0.7423,-0.1115 z m -60.4968,-5.0481 c -0.5635,-0.8773 0.7718,-2.2641 1.975,-2.0774 0.5809,0.09 1.1639,1.0741 1.0077,1.7037 -0.1521,0.6149 -2.6231,0.9338 -2.9827,0.3737 z m 6.9257,0.6322 c -0.5856,-0.8807 0.8966,-2.6463 2.0542,-2.4866 0.5735,0.079 0.5593,0.134 -0.4894,1.5711 -0.8179,1.1206 -1.2575,1.3774 -1.5646,0.9155 z m 9.8085,0.6848 c -0.026,-1.2822 -0.054,-1.3493 -0.7972,-1.6139 -1.1431,-0.4072 -1.2961,-0.9682 -0.4112,-1.4009 1.5414,-0.7537 3.2238,0.5506 2.9046,2.2381 -0.2795,1.4773 -1.6674,2.2057 -1.6962,0.7767 z m 39.8011,-0.5517 c -1.0991,-1.2764 -1.9955,-1.4039 -2.8872,-0.3777 -0.9348,1.0759 -1.4897,0.8678 -1.276,-0.4523 0.4219,-2.6076 4.1242,-2.5457 5.4497,-0.062 0.7998,1.4986 -0.059,2.3174 -1.2865,0.8925 z m -45.7533,-3.09 c -0.2859,-0.4326 0.1843,-1.4099 0.8044,-1.6848 1.6604,-0.7364 3.2219,-0.2971 3.2499,0.9181 0.021,0.9328 -0.5383,1.3672 -1.1206,0.8474 -0.5741,-0.5124 -1.2949,-0.5759 -1.7848,-0.1527 -0.4261,0.368 -0.9323,0.3999 -1.1489,0.072 0,0 0,0 0,0 z m 15.7742,-2.5693 c -0.3222,-0.4566 0.021,-0.9099 0.9021,-1.2247 0.6521,-0.2332 0.9196,-0.471 0.9146,-0.7988 -0.01,-0.4822 -0.2598,-0.5353 -1.3403,-0.3123 -0.3892,0.08 -0.7816,-0.027 -1.0289,-0.2805 -0.5216,-0.5355 -0.1633,-0.8639 1.7497,-1.737 1.8647,-0.8512 1.9669,-1.0005 2.0569,-2.3205 0.072,-1.0508 0.042,-1.1039 -0.6973,-1.1528 -0.9833,-0.065 -0.9066,-0.5078 0.1891,-1.4204 0.4575,-0.381 1.134,-1.1808 1.5155,-1.7872 0.8192,-1.3023 1.2938,-1.3639 1.5956,-0.2301 0.1244,0.467 0.4523,1.3527 0.7496,2.0129 0.6072,1.3489 0.3426,2.0505 -0.7647,1.8085 -0.6421,-0.1403 -0.9265,0.229 -1.172,1.5839 -0.1163,0.6597 0.7411,1.9219 2.1086,3.0205 0.033,0.027 0.065,0.053 0.095,0.079 0.8437,0.718 0.6395,1.1715 -0.4977,1.1157 0,0 0,0 0,0 -0.1536,-0.01 -0.3242,-0.023 -0.5113,-0.049 -1.4004,-0.198 -1.7063,-0.076 -1.1488,0.546 0.3246,0.362 0.3328,0.9572 0.01,1.1364 -0.3793,0.2102 -4.5799,0.2171 -4.7253,0.011 z m 74.9962,49.1897 c -0.3943,-0.1989 -0.9771,-0.1816 -1.7671,0.047 -1.6332,0.4728 -2.2383,0.032 -2.0721,-1.4377 0.1085,-0.9578 0.2719,-1.1456 1.2246,-1.4297 1.5543,-0.4634 3.6335,0.3851 3.941,1.6205 0.2964,1.1911 -0.2785,1.7284 -1.3264,1.1998 z m -13.3029,-1.6613 c -0.7429,-0.376 -0.8481,-1.0106 -0.3159,-1.7576 0.6583,-0.9238 2.8678,-1.3412 3.9567,-0.7508 1.0862,0.5889 0.8419,1.3657 -0.538,1.5208 -0.5541,0.062 -1.2566,0.3448 -1.5582,0.6278 -0.6626,0.6218 -0.9141,0.6788 -1.5445,0.3598 z m 6.1475,-1.2718 c -0.6359,-0.299 -0.7409,-1.3321 -0.2064,-1.8652 0.93,-0.9274 2.8037,-0.6153 2.8,0.4956 0,0.5991 -1.9859,1.6554 -2.5936,1.3696 z m 22.0404,-6.637 c -1.3854,-0.4753 -1.1573,-2.1928 0.3132,-3.0364 1.4847,-0.8518 3.6147,0.015 2.2732,1.1442 -0.3231,0.2719 -0.9457,0.87 -1.3429,1.2876 -0.5551,0.5836 -0.8684,0.7333 -1.2435,0.6046 z m -16.4976,4.1283 c -0.6071,-0.3244 -0.7545,-1.1582 -0.3278,-1.7597 0.5037,-0.7099 2.8075,-0.5265 3.1938,0.2533 0.4804,0.9698 -1.6805,2.1395 -2.866,1.5064 z m -15.3329,1.5853 c -0.5638,-0.206 -0.9426,-0.6639 -1.4841,-1.8215 -0.3963,-0.8462 -0.936,-1.7603 -1.1962,-2.0144 -0.2641,-0.2579 -0.4697,-0.7094 -0.4594,-1.0044 0.027,-0.7797 1.1934,-0.8659 1.9297,-0.1532 0.6978,0.6754 1.3244,0.6527 1.8566,-0.064 0.5549,-0.747 1.3112,-0.5102 1.6855,0.5285 0.3343,0.9277 2.0905,1.7187 3.335,1.486 1.1822,-0.2209 1.3707,-2.3807 0.343,-3.3027 -1.1294,-1.0132 -0.1157,-1.8865 1.1324,-1.1673 0.593,0.3417 1.1732,1.2438 1.5463,2.4015 0.6084,1.8874 -2.9706,4.1672 -5.3856,3.3006 -1.0862,-0.3897 -1.634,-0.2382 -1.3971,0.4104 0.1427,0.3908 -0.5116,1.5717 -0.9166,1.6371 -0.1286,0.021 -0.5742,-0.085 -0.9895,-0.2366 z m 28.462,-7.0887 c -0.9975,-0.3679 -0.9324,-2.652 0.039,-2.9533 0.719,-0.2231 2.0221,0.4939 1.8755,1.0386 -0.061,0.2277 -0.2674,0.4627 -0.4584,0.5227 -0.1898,0.06 -0.5331,0.4203 -0.7638,0.8002 -0.2309,0.3803 -0.5438,0.6465 -0.6922,0.5918 z m -36.7204,6.4936 c -4.6949,-1.1784 -3.3621,-7.8049 0.38,-7.4373 0.9583,0.094 0.8945,0.8354 -0.1413,1.2429 -1.112,0.4373 -1.5141,1.4045 -1.1647,2.8843 0.4466,1.8911 2.7157,2.9727 4.1751,1.958 0.7698,-0.5352 1.5467,-0.5438 1.7203,-0.011 0.1153,0.3534 -2.1498,1.548 -3.1104,1.6377 -0.3036,0.028 -1.1379,-0.093 -1.859,-0.2743 z m 20.1322,-4.4535 c -0.2593,-0.8806 0.9045,-1.7598 1.6179,-1.2542 0.3152,0.2234 0.3053,0.5076 -0.046,1.0397 -0.6757,1.0246 -1.3107,1.1032 -1.5722,0.2145 z m 5.2248,-3.3267 c -0.7576,-0.2325 -0.8066,-0.9111 -0.1525,-1.6703 0.4981,-0.5781 0.2862,-1.4335 -0.4612,-1.9692 -0.3354,-0.2404 -0.4631,-0.2178 -0.6834,0.1211 -0.332,0.5104 -1.7515,0.732 -2.1025,0.3281 -0.1424,-0.1634 0.094,-0.5477 0.532,-0.8776 1.6354,-1.2308 1.9349,-4.2169 0.5432,-4.3537 -0.708,-0.07 -0.8197,-0.7031 -0.4057,-2.1201 0.486,-1.6653 0.5363,-1.6464 2.8489,-0.4521 2.277,1.1768 2.6935,1.8377 0.9774,2.0283 -0.9125,0.1014 -1.0354,0.1956 -1.0482,0.8248 -0.028,1.3785 0.7495,2.0833 3.5211,2.9146 0.7997,0.2398 1.4581,0.606 1.6135,0.9076 0.2687,0.5218 0.1326,0.5915 -2.2044,0.6886 -0.9801,0.041 -0.7793,0.9268 0.3927,1.4926 1.1261,0.5437 0.9492,1.2187 -0.4336,1.376 -0.6412,0.073 -1.4302,0.3156 -1.7468,0.5394 -0.3975,0.2811 -0.7714,0.3505 -1.1906,0.2218 0,0 -10e-5,0 -10e-5,0 z m 14.7905,-5.5018 c -0.5371,-0.054 -1.2495,-0.01 -1.5785,0.099 -0.8693,0.2877 -1.8467,-0.2128 -1.5191,-0.7556 0.9912,-1.6429 0.082,-2.664 -1.4729,-1.8971 -2.0163,0.9946 -2.7562,-0.2301 -1.4432,-0.9686 0.8703,-0.4895 1.5326,-2.3594 1.0662,-2.9268 -0.2802,-0.341 -0.5309,-0.3401 -1.3678,-0.01 -0.7761,0.3089 -1.1238,0.3191 -1.406,0.049 -0.4446,-0.4251 -0.036,-1.2339 0.7357,-1.4829 0.6611,-0.2135 0.7525,-2.0961 0.176,-3.1941 -0.6981,-1.3298 0.4914,-1.2302 1.7425,0.042 0.5571,0.5665 1.4143,1.2001 1.9247,1.4253 1.0016,0.4419 1.0653,0.8166 0.1501,1.2937 -1.3556,0.7066 0.9336,3.1477 2.9585,2.9677 0.9316,-0.083 1.3377,0.035 2.0704,0.6019 1.4211,1.0991 1.0613,1.6702 -1.218,1.5153 -1.262,-0.086 -1.2919,-0.074 -1.0786,0.7798 0.1021,0.409 0.3987,0.6799 0.984,0.8906 1.0458,0.3759 1.2347,0.6401 0.7819,1.1841 -0.4353,0.5229 -0.338,0.5015 -1.5058,0.3837 -10e-5,0 -10e-5,0 -10e-5,0 z m -26.4735,4.7894 c -0.3584,-0.2666 -0.7175,-0.6744 -0.8026,-0.9083 -0.2076,-0.5704 -0.7857,-0.7895 -2.3269,-0.9197 -1.6078,-0.136 -2.6724,-0.7009 -2.9347,-1.5269 -0.5737,-1.807 -2.7607,-1.8273 -3.8205,-0.052 -0.466,0.781 -0.9565,1.2275 -1.4128,1.2939 -0.8057,0.1173 -1.1018,0.538 -1.0939,1.5773 0.01,0.8181 -0.8182,1.1391 -1.2921,0.4904 -0.9676,-1.3245 -0.5156,-2.6034 1.1701,-3.6138 0.4766,-0.2858 1.0826,-0.8752 1.3551,-1.3162 0.8066,-1.3053 1.1349,-1.4439 2.9111,-1.2568 1.6229,0.1709 2.2317,0.4972 3.6669,1.9091 0.6716,0.6607 0.8324,0.6951 2.6217,0.4331 1.9048,-0.279 1.8853,-0.2906 2.6084,1.418 1.0053,2.3751 0.7811,3.5355 -0.6496,2.4716 z m 45.1513,-18.771 c -1.1656,-0.3017 -1.5222,-2.3059 -0.5426,-2.8262 0.5945,-0.3158 2.3791,0.2109 2.9466,0.8694 0.399,0.4628 0.3571,0.5625 -0.4126,0.9101 -0.4729,0.2136 -1.0072,0.5656 -1.1823,0.7805 -0.185,0.227 -0.5267,0.3393 -0.8091,0.2662 z m -37.8306,12.041 c -0.7732,-0.223 -0.5613,-0.9454 0.2616,-0.9911 0.808,-0.045 1.2057,0.4576 0.6523,0.8556 -0.4291,0.3086 -0.3524,0.2974 -0.9137,0.1355 0,0 0,0 0,0 z m 30.6464,-11.6789 c -0.9548,-0.1422 -1.3989,-0.7079 -0.9317,-1.1443 0.3631,-0.3393 -0.1648,-1.3551 -0.7222,-1.4168 -0.4585,-0.051 -2.6865,-1.972 -2.8173,-2.409 -0.177,-0.5915 0.6439,-0.7942 1.5453,-0.395 1.0916,0.4834 1.2682,0.3494 0.9379,-0.6412 -0.3716,-1.1145 0.3934,-1.352 1.0543,-0.3371 2.6853,4.1244 2.8719,4.3471 2.6661,5.2397 -0.2258,0.98 -0.6702,1.2619 -1.7325,1.1037 0,0 0,0 1e-4,0 z m 3.4173,-1.6759 c -0.8191,-0.2294 -1.043,-0.5232 -0.9989,-1.2681 0.031,-0.5188 -0.064,-0.6471 -0.7122,-1.0154 -1.515,-0.861 -1.0496,-1.8658 0.5399,-1.5243 3.1909,0.6855 1.8284,-1.5894 -0.4036,-2.2456 -1.3755,-0.4044 -1.6122,-1.0915 -0.5519,-1.3877 1.0934,-0.3054 2.8789,0.3692 3.7708,1.4456 0.9765,1.1785 1.0701,1.7669 0.3915,2.8475 -0.4683,0.7457 -0.5015,1.0644 -0.1433,1.5966 0.5486,0.8152 -0.7234,1.8788 -1.8923,1.5515 0,0 10e-5,-10e-5 10e-5,-10e-5 z m -10.3235,2.4107 c -2.1991,-0.7806 -3.4188,-3.6047 -2.4753,-5.2077 0.506,-0.8595 1.6547,0.096 1.365,1.3086 -0.1537,0.6433 -0.079,0.9288 0.411,1.453 0.3216,0.3441 0.5968,0.5854 0.8726,0.7297 0,0 0,0 0,0 0.5912,0.3111 1.1961,0.1786 2.2771,-0.3533 1.6179,-0.7962 2.2391,-0.483 1.3452,0.8928 -0.6936,1.0675 -1.7968,1.553 -3.034,1.369 -0.2493,-0.037 -0.5039,-0.1006 -0.7616,-0.1921 z m -54.9082,10.069 c -0.4901,-0.3826 -0.7045,-0.4107 -1.106,-0.1406 -0.6845,0.4604 -2.2268,0.2824 -2.3139,-0.2644 -0.087,-0.5262 1.4103,-2.5616 1.8994,-2.6084 0.2013,-0.019 0.6327,0.2126 0.9604,0.5144 0.3307,0.3047 1.0445,0.7807 1.6038,1.0671 1.1781,0.6033 1.3117,1.2433 0.2906,1.6329 -0.554,0.2114 -0.8663,0.1645 -1.3346,-0.201 10e-5,0 2e-4,0 3e-4,0 z m 26.5643,-4.2838 c -0.2424,-0.1636 -0.7632,-0.2649 -1.1563,-0.2257 -0.9837,0.098 -1.3482,-0.7242 -0.7886,-1.6882 0.2397,-0.4128 0.3694,-0.9346 0.2916,-1.1599 -0.2644,-0.7681 0.2187,-1.709 0.951,-1.8766 0.5762,-0.1319 0.9239,0.042 1.9537,0.9229 1.4754,1.2623 1.6742,1.8836 0.4709,1.9235 -0.7558,0.025 -0.7992,0.091 -0.6986,1.1347 0.11,1.1409 -0.2496,1.4915 -1.0237,0.9693 z m -9.3915,1.1813 c -0.7718,-0.3757 -0.8466,-0.3647 -1.7753,0.2111 -1.2348,0.7657 -3.0295,0.6426 -3.5624,-0.2321 -0.9563,-1.5698 -0.6825,-3.5964 0.4383,-3.7732 0.751,-0.1185 0.7746,-0.079 0.5005,1.0509 -0.3129,1.2893 0.4381,2.1041 1.6914,1.7853 0.8349,-0.2124 0.8943,-0.3184 0.8608,-1.4425 -0.041,-1.3737 0.3978,-1.7114 1.3197,-1.0544 0.342,0.2436 0.942,0.3842 1.3328,0.3124 0.8886,-0.1633 1.1091,0.1567 1.0525,1.5569 -0.078,1.9265 -0.461,2.2658 -1.8584,1.5856 1e-4,0 1e-4,0 1e-4,0 z m 4.904,-2.6401 c -0.1066,-0.1663 -0.4937,-0.7553 -0.8543,-1.3101 -0.7138,-1.0984 -0.795,-1.8392 -0.2416,-1.9513 0.7411,-0.1502 2.3186,1.9551 2.1521,2.8801 -0.1075,0.5971 -0.7641,0.8367 -1.0562,0.3813 z m 29.633,-11.0696 c -1.1904,-0.9988 -1.3932,-1.5081 -1.1089,-2.4756 0.3741,-1.2722 0.7866,-1.6249 1.5799,-1.3028 0.076,0.031 0.1506,0.07 0.2216,0.1152 0.5187,0.3354 0.8657,0.9911 0.5254,1.1455 -0.054,0.024 -0.098,0.067 -0.1344,0.1229 0,0 0,0 0,0 -0.2061,0.3245 -0.1303,1.1151 0.2111,1.6486 0.3889,0.608 0.3,1.0867 -0.2676,1.3374 -0.1135,0.05 -0.5785,-0.2148 -1.0272,-0.5912 0,0 0,0 10e-5,0 z m 10.2443,-4.7254 c -0.1388,-0.043 -0.5147,-0.4179 -0.8358,-0.8355 -0.4682,-0.609 -0.7577,-0.7705 -1.4659,-0.8277 -1.6936,-0.1367 -1.7513,-1.5879 -0.2234,-2.0086 1.5588,-0.4293 4.6918,2.7204 3.242,3.4995 -0.2563,0.1377 -0.5787,0.2148 -0.7169,0.1723 z m -56.7241,14.5255 c -0.9128,-0.6678 -0.263,-2.3322 0.9275,-2.4903 0.5746,-0.076 1.5499,0.6804 1.6849,1.3122 0,0.013 0,0.027 0.01,0.04 0,0 0,0 0,0 0,0 0,0 0,0 0,0.032 0,0.064 -0.01,0.097 0,0 0,0 0,0 -0.1602,0.6154 -2.0731,1.4319 -2.6074,1.041 z m 6.7204,-1.3623 c -0.9449,-0.6519 -0.3715,-2.7232 0.7594,-2.91 0.5609,-0.093 0.5747,-0.038 0.2662,1.6046 -0.2404,1.2803 -0.5303,1.6473 -1.0256,1.3054 z m 9.3453,-2.2641 c -0.6375,-1.18 -0.6918,-1.2329 -1.497,-1.2552 -1.2384,-0.034 -1.6373,-0.5104 -1.0349,-1.1756 1.0401,-1.1484 3.1909,-0.4633 3.7102,1.1986 0.4477,1.4326 -0.4579,2.566 -1.1783,1.2322 z m 34.7648,-13.2812 c -1.6564,-0.7517 -2.468,-0.5682 -2.6456,0.6553 -0.1864,1.2851 -0.7707,1.2768 -1.3133,0.021 -1.0626,-2.4599 1.9781,-3.674 4.5436,-1.9216 1.4819,1.0123 1.3367,2.1175 -0.5847,1.2455 z m -41.9151,11.6725 c -0.4589,-0.3186 -0.4726,-1.3647 -0.034,-1.8021 1.1743,-1.1694 2.7855,-1.2271 3.3747,-0.1071 0.4513,0.8579 0.1477,1.4304 -0.6266,1.1195 -0.7601,-0.3052 -1.4453,-0.1519 -1.6981,0.3855 -0.2197,0.4675 -0.6685,0.6459 -1.0165,0.4042 0,0 0,0 0,0 z m 13.0658,-7.124 c -0.5103,-0.323 -0.4195,-0.8469 0.217,-1.4067 0.4713,-0.4147 0.5951,-0.716 0.4323,-1.0171 -0.24,-0.443 -0.4902,-0.4146 -1.3482,0.1211 -0.3092,0.193 -0.7112,0.2139 -1.0532,0.055 -0.7213,-0.336 -0.5539,-0.7487 0.7304,-2.1385 1.2511,-1.3544 1.2661,-1.524 0.7165,-2.7707 -0.4374,-0.9928 -0.487,-1.0333 -1.1623,-0.8535 -0.8981,0.2391 -1.0353,-0.1946 -0.5024,-1.371 0.2231,-0.4921 0.4398,-1.4353 0.4884,-2.1127 0.1051,-1.4548 0.487,-1.6517 1.2852,-0.6965 0.3324,0.3978 1.0332,1.11 1.6147,1.6334 1.1802,1.0623 1.2923,1.7893 0.1945,1.9027 -0.6333,0.065 -0.7095,0.4934 -0.2744,1.8192 0.2149,0.6454 1.5835,1.5481 3.346,2.1434 1.3602,0.4593 1.3062,1.0501 -0.2542,1.3345 -1.3489,0.2459 -1.5646,0.4524 -0.7603,0.8549 0.4682,0.2342 0.7687,0.78 0.5669,1.0441 -0.237,0.3101 -4.0062,1.6047 -4.2366,1.4589 z m 88.1942,22.3454 c -0.321,-0.1506 -0.696,-0.072 -1.1267,0.2391 -0.88,0.6353 -1.4379,0.3152 -1.8761,-1.1191 -0.2833,-0.9269 -0.2434,-1.1343 0.2984,-1.5281 0.8975,-0.6523 2.5818,-0.045 3.177,1.1167 0.5807,1.1338 0.3665,1.6849 -0.4724,1.2915 z m -9.6997,0.5709 c -0.706,-0.1879 -1.0783,-0.7519 -1.0242,-1.5713 0.068,-1.0208 1.5262,-1.8858 2.57,-1.5452 1.0465,0.3414 1.164,1.1255 0.2557,1.5394 -0.372,0.1695 -0.755,0.5789 -0.848,0.9085 -0.2043,0.723 -0.3539,0.8281 -0.9535,0.6686 z m 3.8546,-2.4184 c -0.5692,-0.1709 -1.07,-1.1267 -0.8958,-1.7308 0.089,-0.3068 0.277,-0.5259 0.5095,-0.656 0.5479,-0.3062 1.3597,-0.075 1.6527,0.6748 0.1526,0.3907 -0.2517,1.1285 -0.6797,1.4933 -0.206,0.1727 -0.4188,0.269 -0.5867,0.2187 z m 13.7845,-8.3679 c -1.0692,-0.4631 -1.194,-2.1585 -0.1519,-3.0095 1.1773,-0.9614 2.6382,0.1701 1.8377,1.1532 -0.2276,0.2795 -0.6032,0.8319 -0.8545,1.2596 -0.3372,0.5742 -0.5393,0.7232 -0.8313,0.5967 z m -10.8698,5.1612 c -0.5373,-0.2342 -0.9392,-1.0138 -0.837,-1.6501 0.122,-0.7604 1.8707,-0.8559 2.3867,-0.1454 0.656,0.9035 -0.5411,2.235 -1.5497,1.7955 z m -10.4749,4.4377 c -0.5257,-0.051 -1.0254,-0.3769 -2.0078,-1.3045 -0.7219,-0.6813 -1.5843,-1.3696 -1.9217,-1.5354 -0.3353,-0.1646 -0.7244,-0.523 -0.8634,-0.7965 -0.3681,-0.7241 0.5228,-1.1304 1.4542,-0.6686 0.88,0.4364 1.3541,0.2558 1.4331,-0.5456 0.083,-0.8381 0.7966,-0.8048 1.5651,0.069 0.6868,0.7813 2.3983,1.1004 3.2242,0.6203 0.7915,-0.4602 0.041,-2.5387 -1.1644,-3.1781 -1.2414,-0.6587 -0.9963,-1.787 0.3951,-1.3477 0.6169,0.1948 1.4393,0.9235 2.1977,1.9468 1.2379,1.67 -0.5254,4.5049 -2.6666,4.2623 -1.0042,-0.1138 -1.3426,0.1688 -0.8666,0.7114 0.288,0.3282 0.3422,1.5856 0.075,1.7424 -0.086,0.051 -0.4694,0.061 -0.8541,0.024 z m 18.6331,-10.8976 c -0.814,-0.3297 -1.187,-2.5867 -0.4572,-2.9232 0.542,-0.2499 1.6612,0.4374 1.623,0.9789 -0.016,0.2264 -0.1415,0.4637 -0.2792,0.5269 -0.1382,0.064 -0.3462,0.428 -0.4608,0.811 -0.1147,0.3826 -0.3046,0.6554 -0.4258,0.6064 z m -25.2945,12.6206 c -3.9978,0.3051 -7.3053,-5.9483 -3.6171,-6.8775 0.8473,-0.2135 1.1713,0.487 0.5418,1.173 -0.6807,0.7416 -0.4876,1.7433 0.584,2.9785 1.3784,1.5889 3.7291,1.8642 4.3442,0.5459 0.3315,-0.7101 0.9368,-0.9308 1.3367,-0.4896 0.2604,0.2872 -0.8874,2.0158 -1.5894,2.3743 -0.22,0.1122 -0.9378,0.2449 -1.6002,0.2954 z m 13.3955,-8.9792 c -0.5138,-0.7848 0.01,-1.8432 0.7518,-1.4555 0.318,0.1661 0.4072,0.4407 0.3364,1.004 -0.1354,1.0782 -0.5576,1.2621 -1.0882,0.4515 z m 2.835,-3.9683 c -0.6599,-0.1256 -0.9275,-0.7725 -0.6354,-1.5997 0.2215,-0.6274 -0.1967,-1.4336 -0.9816,-1.8457 -0.3515,-0.1845 -0.4525,-0.1428 -0.5268,0.2184 -0.1114,0.5416 -1.1968,0.9776 -1.6196,0.6507 -0.1728,-0.1334 -0.1134,-0.5428 0.1399,-0.9336 0.9341,-1.4413 0.3293,-4.4078 -0.9633,-4.2977 -0.6518,0.055 -0.9714,-0.532 -1.0466,-1.9796 -0.087,-1.674 -6e-4,-1.7328 2.4964,-0.927 2.4885,0.803 2.8848,1.4195 1.4514,1.8346 -0.7947,0.2301 -0.8771,0.3445 -0.7074,0.9596 0.3781,1.3699 1.2686,1.8803 3.8405,2.3877 0.741,0.1461 1.3772,0.4415 1.5769,0.7241 0.3552,0.5025 0.2328,0.5475 -1.6655,0.9067 -0.8181,0.1547 -0.3711,0.9944 0.711,1.4173 1.0656,0.4164 1.0506,1.0946 0.019,1.3921 -0.4904,0.1415 -1.0398,0.4684 -1.2238,0.7265 -0.2292,0.3218 -0.4978,0.4356 -0.8654,0.3656 -1e-4,0 -1e-4,0 -1e-4,0 z m 10.8909,-6.4753 c -0.4566,-0.051 -1.0467,0 -1.3133,0.1197 -0.6851,0.2992 -1.5886,-0.1515 -1.3777,-0.7068 0.615,-1.6186 -0.2023,-2.707 -1.5357,-1.819 -1.1917,0.7936 -2.9101,0.2652 -1.4323,-0.8744 0.6921,-0.5336 1.0769,-2.4507 0.574,-2.9793 -0.306,-0.3216 -0.5508,-0.3083 -1.2954,0.086 -0.6902,0.3657 -1.0115,0.4077 -1.324,0.1655 -0.4925,-0.3818 -0.2407,-1.2248 0.4713,-1.5378 0.6103,-0.2682 0.4674,-2.1517 -0.2614,-3.1969 -0.8422,-1.2081 0.324,-1.3352 1.7897,-0.092 0.6145,0.5211 1.5519,1.122 2.062,1.3196 1.0366,0.4015 1.09,0.7777 0.2445,1.2867 -1.2808,0.7711 1.2268,3.0785 2.9897,2.8932 0.8456,-0.089 1.2351,0.035 1.9061,0.6085 1.3447,1.1493 0.9209,1.6536 -1.027,1.5008 -1.1236,-0.088 -1.1454,-0.061 -0.8959,0.781 0.1204,0.4068 0.3996,0.6726 0.9157,0.8829 0.9237,0.3758 1.0828,0.6488 0.7412,1.1824 -0.334,0.5216 -0.2406,0.4903 -1.2314,0.3798 0,0 -1e-4,0 -1e-4,0 z m -20.4017,7.9208 c -0.4046,-0.1658 -0.8798,-0.4635 -1.052,-0.6609 -0.4198,-0.4812 -0.9983,-0.5537 -2.3331,-0.2753 -1.393,0.2905 -2.5553,0.069 -3.1792,-0.6204 -1.3607,-1.5039 -3.2678,-0.8874 -3.2531,1.0698 0.01,0.8551 -0.1733,1.4114 -0.5218,1.612 -0.617,0.3551 -0.6418,0.8306 -0.089,1.7735 0.4367,0.7445 -0.079,1.286 -0.8158,0.8484 -1.5103,-0.8977 -1.8368,-2.1935 -0.9349,-3.6504 0.2528,-0.4085 0.4611,-1.1383 0.4642,-1.6234 0.01,-1.4357 0.2302,-1.6793 1.8596,-2.0415 1.4707,-0.3269 2.2001,-0.2052 4.0815,0.7034 0.8929,0.4312 1.0224,0.4132 2.4244,-0.2955 1.4754,-0.7456 1.4846,-0.7449 2.8134,0.686 1.8984,2.0444 2.0814,3.1078 0.5357,2.4743 z m 38.9434,-19.8163 c -1.0037,-0.5387 -0.7095,-2.5438 0.4857,-2.831 0.7252,-0.1743 2.2672,0.752 2.5499,1.5188 0.199,0.5398 0.1135,0.618 -0.7528,0.7647 -0.5372,0.091 -1.1707,0.3026 -1.4172,0.4707 -0.2574,0.1755 -0.6212,0.2079 -0.8656,0.077 z m -35.486,11.8766 c -0.7411,-0.068 -0.841,-0.799 -0.1143,-1.0025 0.7087,-0.1986 1.2141,0.2232 0.8664,0.7034 -0.2726,0.3764 -0.2041,0.3491 -0.7521,0.2991 0,0 0,0 0,0 z m 28.3431,-12.8088 c -0.9181,-0.2707 -1.2662,-0.8814 -0.6801,-1.2534 0.4508,-0.2861 0.1602,-1.3593 -0.4193,-1.4916 -0.4158,-0.095 -2.4704,-2.2828 -2.5171,-2.7011 -0.067,-0.6032 0.9152,-0.7334 1.8282,-0.2279 1.0857,0.601 1.3145,0.515 1.223,-0.517 -0.1009,-1.14 0.8458,-1.2925 1.2784,-0.1845 1.7146,4.3927 1.7245,4.7827 1.3092,5.553 -0.4978,0.9237 -0.9935,1.126 -2.0223,0.8226 0,0 0,0 0,-1e-4 z m 3.8838,-1.0903 c -0.7497,-0.3718 -0.9008,-0.6938 -0.6232,-1.4136 0.1922,-0.4983 0.1421,-0.6439 -0.4247,-1.1141 -1.2521,-1.0401 -0.6284,-2.0592 1.0741,-1.3895 1.9754,0.7771 3.7112,-0.673 0.3606,-2.2573 -1.3533,-0.64 -1.453,-1.3587 -0.098,-1.4513 1.3878,-0.095 3.0745,0.9338 3.588,2.1693 0.5614,1.351 0.3889,1.928 -0.7199,2.8182 -0.7649,0.6142 -0.9057,0.9218 -0.7348,1.5061 0.2655,0.9072 -1.3787,1.6495 -2.4217,1.1322 0,0 1e-4,0 1e-4,0 z m -11.0403,1.1578 c -2.1506,-0.8783 -3.4031,-3.7201 -2.1342,-5.3091 0.7503,-0.9397 1.8237,0.2484 1.3841,1.3598 -0.2522,0.6371 -0.1929,0.9253 0.2754,1.4717 0.9753,1.138 1.5054,1.2221 3.3152,0.5831 1.9365,-0.6839 2.3746,-0.2088 1.2445,1.0141 -1.0965,1.1866 -2.5576,1.5042 -4.085,0.8804 z m -48.8124,21.0678 c -0.6496,-0.1664 -0.8542,-0.1141 -1.0495,0.2692 -0.3321,0.6519 -1.7898,1.0485 -2.1839,0.5965 -0.3833,-0.4357 -0.2531,-2.7809 0.1525,-2.9997 0.1664,-0.09 0.6811,-0.039 1.1445,0.1114 0.4658,0.1515 1.3729,0.3204 2.0261,0.3767 1.3823,0.1192 1.8593,0.6469 1.1924,1.3526 -0.3629,0.384 -0.6618,0.4524 -1.2823,0.2934 10e-5,0 10e-5,-10e-5 10e-5,-10e-5 z m 21.5271,-12.2466 c -0.2928,-0.095 -0.8196,-0.061 -1.171,0.077 -0.8658,0.3403 -1.5744,-0.3236 -1.4517,-1.3855 0.052,-0.4523 -0.042,-0.9795 -0.2112,-1.1709 -0.5781,-0.6531 -0.5056,-1.6726 0.1518,-2.0275 0.5111,-0.2759 0.9454,-0.211 2.2985,0.3701 0.085,0.036 0.1666,0.072 0.2454,0.1078 1.747,0.7797 2.0164,1.305 0.948,1.6098 -0.074,0.021 -0.1396,0.041 -0.1986,0.06 -0.519,0.1706 -0.4831,0.3203 -0.033,1.1887 0.5515,1.064 0.3451,1.4709 -0.5783,1.1701 z m -8.065,3.704 c -0.8779,-0.1111 -0.9501,-0.075 -1.4874,0.7402 -0.7124,1.0814 -2.3624,1.5483 -3.3027,0.9294 -1.6865,-1.1098 -2.5551,-3.0299 -1.6159,-3.5699 0.6258,-0.3598 0.6667,-0.3281 1.0152,0.7881 0.3993,1.2793 1.5082,1.763 2.4663,1.0773 0.6429,-0.4603 0.6462,-0.5744 0.04,-1.5933 -0.7371,-1.2388 -0.5129,-1.6998 0.6798,-1.3849 0.4385,0.1158 1.0644,0.058 1.391,-0.1277 0.7472,-0.4256 1.1073,-0.1912 1.7278,1.119 0.8579,1.8123 0.6702,2.2223 -0.9141,2.0218 0,0 0,0 0,0 z m 3.2444,-3.8862 c -0.188,-0.1345 -0.7922,-0.5558 -1.4027,-0.9763 -1.1819,-0.8141 -1.617,-1.4741 -1.1335,-1.7446 0.646,-0.3616 3.1081,1.1558 3.3588,2.0687 0.1623,0.5909 -0.3462,0.9928 -0.8226,0.6522 z m 29.308,-15.5063 c -1.2898,-1.0269 -1.5187,-1.5275 -1.0422,-2.5043 0.6238,-1.2791 1.2358,-1.6299 2.183,-1.2798 0.7632,0.2822 1.215,1.129 0.7066,1.292 -0.4781,0.1532 -0.588,1.136 -0.2073,1.7812 0.3692,0.6258 0.1812,1.1001 -0.5092,1.3313 -0.1388,0.046 -0.6453,-0.2336 -1.1311,-0.6204 1e-4,0 1e-4,0 1e-4,0 z m 13.4189,-3.6998 c -0.1449,-0.066 -0.4455,-0.4995 -0.6682,-0.9616 -0.3243,-0.6726 -0.6183,-0.885 -1.4661,-1.0499 -1.9366,-0.3769 -1.7395,-1.8287 0.504,-2.0068 2.3729,-0.1884 4.4206,3.5295 2.5382,3.9825 -0.3539,0.085 -0.7625,0.1018 -0.9079,0.036 z m -58.823,23.5224 c -1.196,-0.2731 -1.5709,-1.9901 -0.5742,-2.5587 0.4829,-0.2755 1.7939,0.06 2.2701,0.5805 0.466,0.5098 -0.9404,2.1507 -1.6959,1.9782 z m 5.3575,-3.5618 c -1.219,-0.2699 -1.8257,-2.3366 -0.851,-2.8973 0.4825,-0.2776 0.5216,-0.2296 1.1065,1.3657 0.4562,1.2448 0.3847,1.6734 -0.2555,1.5316 z m 7.7532,-5.0915 c -1.1692,-0.904 -1.2646,-0.9347 -2.0658,-0.7034 -1.2309,0.3552 -1.869,0.057 -1.5933,-0.7565 0.478,-1.4106 3.0065,-1.4399 4.2705,-0.045 1.1614,1.2819 0.6215,2.4579 -0.6114,1.5045 z m 39.2857,-18.0546 c -1.9197,-0.9225 -3.1148,-0.7585 -3.6586,0.4538 -0.5682,1.2667 -1.3048,1.2672 -1.7544,-0.029 -0.856,-2.4683 3.7141,-3.74 6.5981,-1.6001 1.8295,1.3575 0.7083,2.0855 -1.1851,1.1757 z m -47.0346,18.8834 c -0.6074,-0.1337 -1.1781,-1.0791 -0.9824,-1.6282 0.524,-1.4691 2.1125,-2.0785 3.2642,-1.2424 0.8834,0.6414 0.8519,1.2638 -0.056,1.236 -0.9026,-0.027 -1.4916,0.3462 -1.4575,0.9216 0.03,0.5011 -0.3084,0.8143 -0.7681,0.7131 0,-10e-5 0,-10e-5 0,-10e-5 z m 10.3094,-10.8225 c -0.7056,-0.1567 -0.8155,-0.6811 -0.2783,-1.4072 0.012,-0.014 0.02,-0.028 0.03,-0.042 0.3808,-0.5194 0.4176,-0.8355 0.1169,-1.0671 -0.2288,-0.1761 -0.4204,-0.2361 -0.6627,-0.1492 -0.2295,0.081 -0.506,0.3003 -0.9018,0.6835 -0.2887,0.2795 -0.7484,0.4248 -1.21,0.3825 -0.9748,-0.089 -0.9934,-0.5279 0.013,-2.2624 0.9874,-1.7019 1.0039,-1.8506 -0.1755,-2.8732 -0.9252,-0.8023 -1.0189,-0.8234 -1.8002,-0.4227 -1.0187,0.5225 -1.3953,0.1851 -1.186,-1.1266 0.086,-0.5381 0,-1.5229 -0.2032,-2.1784 -0.4266,-1.4083 0.015,-1.7576 1.4584,-1.1282 0.01,0 0.01,0 0.012,0.01 0.5748,0.2379 1.8979,0.6936 2.8399,0.9827 2.0254,0.6217 2.3189,1.3045 0.8945,1.7741 -0.8477,0.2794 -0.7793,0.7157 0.2421,1.8488 0.4994,0.5484 2.5968,0.9741 5.037,1.0691 1.9539,0.076 1.8936,0.69 0.046,1.376 -1.6628,0.6174 -1.8033,0.8811 -0.7052,1.0443 0.6557,0.097 1.1836,0.5503 1.0133,0.8621 -0.1515,0.2778 -3.2104,2.0653 -4.2281,2.5177 0,0 0,0 0,0 -0.1804,0.08 -0.3057,0.1213 -0.3528,0.1109 z m 78.593,34.7879 c -0.2012,-0.2575 -0.5984,-0.3378 -1.1935,-0.2384 -1.2152,0.2031 -1.5154,-0.292 -0.9966,-1.7073 0.3351,-0.9141 0.5032,-1.0789 1.2465,-1.2071 1.2161,-0.2098 2.3994,0.9759 2.2099,2.2217 -0.1841,1.2105 -0.7382,1.6069 -1.2663,0.9311 z m -8.6724,-3.2768 c -0.4472,-0.4284 -0.4208,-1.0641 0.092,-1.7588 0.6366,-0.862 2.3267,-1.0676 2.9852,-0.3652 0.6594,0.7032 0.282,1.4265 -0.71,1.4364 -0.406,0 -0.9541,0.2137 -1.2218,0.4658 -0.5857,0.5517 -0.7636,0.5875 -1.1455,0.2218 z m 4.5766,-0.6197 c -0.3745,-0.3709 -0.2115,-1.3958 0.3045,-1.8506 0.9134,-0.8051 2.1857,-0.2113 1.8861,0.8617 -0.1638,0.5859 -1.8467,1.3294 -2.1906,0.9889 z m 18.0874,-1.8718 c -0.7586,-0.8221 0.1643,-2.3626 1.6712,-2.7155 1.6511,-0.3867 2.5089,1.1377 1.0925,1.7231 -0.3854,0.1592 -1.0915,0.5081 -1.5914,0.7872 -0.6761,0.3774 -0.9651,0.4296 -1.1723,0.2052 z m -13.4557,0.2333 c -0.3389,-0.4133 -0.2071,-1.2478 0.2885,-1.7593 0.5866,-0.6055 2.242,-0.015 2.2656,0.8113 0.03,1.0419 -1.9158,1.7263 -2.5541,0.948 z m -11.4319,-0.1599 c -0.3793,-0.2375 -0.5826,-0.7056 -0.8379,-1.8806 -0.1882,-0.8649 -0.4844,-1.7795 -0.659,-2.0492 -0.1719,-0.2654 -0.2828,-0.7227 -0.2441,-1.0142 0.1019,-0.7686 1.0248,-0.8192 1.51,-0.067 0.4543,0.7045 0.9281,0.7206 1.4462,0.046 0.5416,-0.7054 1.102,-0.4095 1.2169,0.6437 0.1024,0.9387 1.2921,1.8651 2.256,1.7634 0.9167,-0.097 1.5561,-2.1912 0.9376,-3.2121 -0.6325,-1.0443 0.238,-1.9433 1.1441,-1.0191 0.3999,0.408 0.6489,1.3595 0.663,2.5428 0.023,1.9513 -3.2009,3.6787 -4.7358,2.6857 -0.7389,-0.478 -1.1659,-0.3544 -1.0978,0.2977 0.041,0.3941 -0.6305,1.5175 -0.9231,1.5562 -0.095,0.013 -0.3992,-0.1199 -0.6761,-0.2933 z m 23.0732,-2.2673 c -0.5707,-0.6044 0.4578,-2.7295 1.3517,-2.7458 0.6519,-0.012 1.3056,1.0207 0.9412,1.4845 -0.1522,0.1936 -0.4155,0.3544 -0.585,0.3572 -0.1699,0 -0.5894,0.2438 -0.9321,0.5361 -0.3424,0.2923 -0.6906,0.4581 -0.7758,0.368 z m -28.9775,1.4637 c -2.8286,-0.9744 -2.9195,-7.8443 0.6592,-7.4044 0.7826,0.096 0.6612,0.8356 -0.1694,1.2375 -0.9018,0.4364 -1.2332,1.4096 -1.0239,2.8793 0.2692,1.8888 1.8642,2.9239 3.0064,1.9672 0.6184,-0.5179 1.2025,-0.4982 1.2745,0.035 0.046,0.3381 -1.7425,1.483 -2.4217,1.5613 -0.2184,0.025 -0.8162,-0.1006 -1.3252,-0.276 z m 15.7589,-2.9448 c 0.039,-0.8825 1.1737,-1.594 1.5916,-0.9689 0.1795,0.2684 0.086,0.5414 -0.3314,1.0028 -0.8041,0.8828 -1.2983,0.8758 -1.258,-0.034 z m 5.0458,-2.336 c -0.5176,-0.3678 -0.3481,-1.0331 0.4319,-1.6379 0.5923,-0.4592 0.7193,-1.3228 0.2763,-1.9863 -0.1984,-0.297 -0.3141,-0.2999 -0.6062,-0.015 -0.4389,0.428 -1.6769,0.3849 -1.8471,-0.065 -0.07,-0.1831 0.2402,-0.5153 0.7095,-0.7562 1.7327,-0.889 3.0406,-3.7027 1.8333,-4.1082 -0.608,-0.2042 -0.5213,-0.8385 0.3121,-2.1262 0.966,-1.4929 1.0686,-1.504 2.7645,0.1557 1.6892,1.6532 1.6843,2.3486 0.1485,2.1577 -0.8452,-0.1051 -0.9889,-0.037 -1.2195,0.5635 -0.5108,1.3293 -0.048,2.1323 1.9486,3.5635 0.5762,0.413 0.9709,0.9166 0.978,1.2403 0.013,0.569 -0.1267,0.5713 -2.0676,0.148 -0.8305,-0.1811 -0.9569,0.7214 -0.237,1.5112 0.7072,0.7759 0.2784,1.3634 -0.8497,1.2203 -0.5342,-0.068 -1.2365,0 -1.5645,0.155 -0.4091,0.1903 -0.7236,0.1843 -1.011,-0.02 -1e-4,0 -1e-4,0 -1e-4,0 z m 13.9931,-1.4924 c -0.3981,-0.2154 -0.9823,-0.3885 -1.2993,-0.3856 -0.8207,0.01 -1.3822,-0.7329 -0.8564,-1.1431 1.547,-1.2071 1.408,-2.4632 -0.3203,-2.1835 -1.6736,0.2707 -2.6908,-0.8851 -0.7755,-1.3095 0.9509,-0.2107 2.4337,-1.7584 2.2953,-2.4152 -0.084,-0.3984 -0.3102,-0.4759 -1.211,-0.4056 -0.8348,0.065 -1.1471,-0.019 -1.2801,-0.3495 -0.2091,-0.5208 0.5209,-1.1677 1.3395,-1.1787 0.7016,-0.01 1.6892,-1.7277 1.6668,-2.92 -0.026,-1.3931 1.0699,-1.0463 1.6286,0.5738 0.2375,0.6887 0.7152,1.5584 1.057,1.9215 0.6887,0.7318 0.5259,1.0882 -0.5308,1.233 -1.5887,0.2178 -0.7364,3.1773 1.0257,3.664 0.8275,0.2286 1.1117,0.4779 1.405,1.234 0.5831,1.5031 -0.079,1.8264 -1.8171,0.9678 -0.9896,-0.4888 -1.0241,-0.4761 -1.2865,0.3661 -0.1263,0.4061 -0.024,0.746 0.3359,1.1237 0.6437,0.6757 0.6401,0.9773 0,1.3269 -0.6182,0.34 -0.517,0.3477 -1.3814,-0.1201 -10e-5,0 -10e-5,0 -10e-5,0 z m -23.1857,-0.9538 c -0.2381,-0.2992 -0.4565,-0.7405 -0.4821,-0.978 -0.063,-0.5804 -0.5048,-0.8655 -1.7792,-1.1248 -1.3248,-0.2697 -2.1558,-0.8919 -2.2774,-1.728 -0.2661,-1.8299 -2.2286,-1.9755 -3.2907,-0.232 -0.4639,0.7617 -0.91,1.1941 -1.3003,1.2515 -0.6924,0.1017 -0.9592,0.5207 -1.0075,1.5546 -0.039,0.8231 -0.7289,1.1184 -1.0872,0.4837 -0.7405,-1.3121 -0.3759,-2.6002 1.1372,-3.5952 0.4205,-0.2765 0.9902,-0.8606 1.2547,-1.2891 0.7859,-1.2735 1.1205,-1.4178 2.6924,-1.1489 1.4201,0.243 1.9788,0.6257 3.0195,2.12 0.4972,0.7142 0.6077,0.7403 2.2089,0.6546 1.6903,-0.09 1.7039,-0.079 1.9568,1.6734 0.3629,2.515 -0.1383,3.4974 -1.0452,2.3582 z m 47.0289,-3.7519 c -0.7063,-0.7915 0.5005,-2.5841 1.7176,-2.5293 0.7314,0.033 1.772,1.3191 1.7128,2.1169 -0.042,0.5619 -0.1538,0.6175 -1.0355,0.5237 -0.5442,-0.058 -1.2382,-0.032 -1.5438,0.058 -0.321,0.094 -0.6796,0.023 -0.8511,-0.1693 z m -39.1473,-1.7987 c -0.6093,-0.3471 -0.2371,-1.0202 0.526,-0.9151 0.7451,0.1027 0.9277,0.6651 0.3218,0.9473 -0.4746,0.2211 -0.3978,0.2241 -0.8478,-0.032 0,0 0,0 0,0 z m 32.9523,-1.1893 c -0.7079,-0.537 -0.7079,-1.2081 0.01,-1.3689 0.5533,-0.1242 0.8233,-1.2064 0.3716,-1.5066 -0.3397,-0.2259 -1.0381,-2.8619 -0.8609,-3.27 0.2502,-0.5764 1.1729,-0.3882 1.7196,0.3548 0.6545,0.889 0.9032,0.8718 1.3309,-0.1081 0.4765,-1.0915 1.3696,-0.9403 1.2124,0.2083 -0.6304,4.6073 -0.7423,4.9358 -1.5233,5.5471 -0.9037,0.7073 -1.4684,0.7435 -2.2591,0.1434 0,0 0,0 1e-4,0 z m 4.0956,0.159 c -0.5138,-0.5665 -0.4928,-0.9109 0.1005,-1.5007 0.4116,-0.4092 0.4317,-0.5591 0.146,-1.1623 -0.6458,-1.3657 0.4448,-2.0667 1.6174,-0.9885 1.7804,1.637 3.2458,0.041 1.3673,-2.011 -0.8988,-0.982 -0.6225,-1.6688 0.5837,-1.3863 1.2376,0.2898 2.2568,1.7061 2.1704,3.0029 -0.095,1.4189 -0.4891,1.926 -1.8918,2.4628 -0.9686,0.3707 -1.2384,0.6157 -1.347,1.2138 -0.1674,0.9221 -2.0229,1.1673 -2.7465,0.3693 0,0 0,0 0,0 z m -10.6216,-2.416 c -1.4631,-1.5282 -0.9708,-4.5109 0.9869,-5.5305 1.127,-0.5871 1.4805,0.8073 0.4758,1.6928 -0.563,0.496 -0.6686,0.7764 -0.5484,1.4288 0.2493,1.3535 0.6869,1.6186 2.6397,1.6177 2.0549,-10e-4 2.2707,0.5584 0.5913,1.3297 -1.6057,0.7375 -3.1106,0.5423 -4.1453,-0.5385 z m -54.4491,1.1127 c -0.4806,-0.3357 -0.6794,-0.3417 -0.9929,-0.034 -0.5302,0.5199 -1.9009,0.5219 -2.0765,0 -0.176,-0.5173 0.7792,-2.6893 1.2516,-2.7956 0.1838,-0.041 0.62,0.1416 0.9669,0.4083 0.3402,0.2616 1.0786,0.6799 1.6069,0.9134 1.1489,0.5079 1.2913,1.1401 0.4426,1.5996 -0.4663,0.2525 -0.739,0.2318 -1.1988,-0.089 10e-5,0 10e-5,0 2e-4,0 z m 25.1583,-3.4407 c -0.1945,-0.1965 -0.6724,-0.3707 -1.0627,-0.3868 -0.9589,-0.039 -1.1674,-0.889 -0.4018,-1.7648 0.326,-0.3728 0.5717,-0.8672 0.5428,-1.0989 -0.098,-0.7909 0.5999,-1.6487 1.3959,-1.7021 0.6183,-0.041 0.9588,0.1834 1.7724,1.2136 1.1781,1.4915 1.1306,2.1127 -0.036,1.9548 -0.7537,-0.102 -0.812,-0.04 -0.9801,0.9936 -0.1853,1.1384 -0.6176,1.4098 -1.2301,0.7906 z m -9.2336,0.1631 c -0.6932,-0.4204 -0.7848,-0.4171 -1.7204,0.1079 -1.2387,0.6951 -2.922,0.5266 -3.3988,-0.3517 -0.8569,-1.5783 -0.5923,-3.6007 0.5705,-3.7521 0.7702,-0.1003 0.7848,-0.054 0.461,1.0608 -0.3725,1.2838 0.3393,2.0976 1.5618,1.8376 0.8273,-0.1761 0.8982,-0.2732 0.9577,-1.3947 0.072,-1.3582 0.5414,-1.6929 1.4159,-0.972 0.3193,0.2633 0.9062,0.4448 1.3047,0.4034 0.9145,-0.095 1.0883,0.2477 0.8433,1.6267 -0.3401,1.9126 -0.7451,2.1927 -1.9957,1.4341 0,0 0,0 0,0 z m 5.1598,-2.1797 c -0.085,-0.1963 -0.3472,-0.7797 -0.6289,-1.3861 -0.5388,-1.1603 -0.5212,-1.9014 0.072,-1.9532 0.7942,-0.069 2.0196,2.1959 1.6753,3.0865 -0.2229,0.577 -0.912,0.7307 -1.1182,0.2528 z m 34.6194,-2.8192 c -0.5557,-1.3583 -0.4723,-1.8845 0.461,-2.615 1.2198,-0.9549 1.9165,-1.078 2.5324,-0.456 0.4951,0.5003 0.4376,1.4184 -0.082,1.4044 -0.4878,-0.013 -1.1043,0.8461 -1.1199,1.5571 -0.015,0.6894 -0.4272,1.0618 -1.1496,1.0453 -0.145,0 -0.4327,-0.4245 -0.642,-0.9358 0,0 1e-4,0 1e-4,0 z m 13.3959,0.667 c -0.094,-0.1017 -0.1492,-0.5893 -0.123,-1.083 0.038,-0.7189 -0.1104,-0.9958 -0.7473,-1.3868 -1.4875,-0.9131 -0.5433,-2.1719 1.3666,-1.7335 1.9703,0.4522 2.1742,4.5037 0.2976,4.417 -0.3424,-0.016 -0.6999,-0.1119 -0.7939,-0.2137 z m -64.8662,0.2792 c -0.9647,-0.6208 -0.4887,-2.3186 0.7884,-2.5233 0.1603,-0.026 0.3529,0.01 0.5522,0.078 0.5544,0.2045 1.1526,0.7255 1.2713,1.1908 0.096,0.3757 -0.6811,0.906 -1.4278,1.1725 -0.4775,0.1703 -0.9456,0.2353 -1.1839,0.082 z m 6.8579,-1.4245 c -0.9556,-0.6681 -0.3576,-2.7292 0.8897,-2.882 0.6139,-0.075 0.6168,-0.017 0.2264,1.6087 -0.3051,1.2701 -0.6145,1.6242 -1.1161,1.2733 z m 10.0341,-1.6221 c -0.4809,-1.2332 -0.5536,-1.2983 -1.4144,-1.3996 -1.325,-0.1559 -1.7302,-0.6544 -0.9761,-1.2636 1.3187,-1.0653 3.6137,-0.108 3.8685,1.5869 0.2385,1.5871 -0.9808,2.3518 -1.478,1.0763 z m 44.0739,-2.0229 c -1.1431,-1.4145 -2.2032,-1.6295 -3.2819,-0.682 -1.128,0.9909 -1.7484,0.7513 -1.4483,-0.5713 0.5816,-2.5641 4.9871,-2.2167 6.2928,0.5085 0.8249,1.7217 -0.3838,2.2035 -1.5626,0.7447 z m -51.6166,-0.1409 c -0.4848,-0.338 -0.4611,-1.3823 0.054,-1.7975 1.3826,-1.1154 3.2521,-1.0521 3.7996,0.1094 0.4227,0.8966 0,1.4233 -0.8084,1.0642 -0.815,-0.3603 -1.5903,-0.2467 -1.9047,0.2735 -0.2739,0.4532 -0.773,0.6065 -1.1401,0.3504 0,0 0,0 0,0 z m 16.0769,-5.5348 c -0.5203,-0.4086 -0.2886,-0.9067 0.6404,-1.3301 0.6871,-0.3131 0.9283,-0.5789 0.8118,-0.9052 -0.1701,-0.4754 -0.4969,-0.507 -1.6983,-0.1424 -0.4316,0.1309 -0.9314,0.079 -1.3167,-0.1364 -0.8065,-0.4511 -0.5505,-0.8416 1.4425,-1.9598 1.9477,-1.0927 2.0554,-1.2232 1.6597,-2.5639 -0.3113,-1.0549 -0.3822,-1.109 -1.3337,-1.0633 -1.2489,0.06 -1.374,-0.3798 -0.3496,-1.4376 0.4203,-0.434 0.9656,-1.3245 1.2045,-1.9707 0.5137,-1.3904 1.1391,-1.5233 2.0218,-0.4077 0.3405,0.4303 1.1788,1.3389 1.7954,1.9529 1.3229,1.3171 1.1592,2.0275 -0.3299,1.8874 -0.8865,-0.083 -1.0974,0.3209 -0.9272,1.7008 0.087,0.6694 1.6027,1.8506 3.5995,2.8587 1.588,0.8017 1.1879,1.3229 -0.7957,1.2182 -1.7772,-0.094 -2.0665,0.077 -1.2319,0.6415 0.4964,0.3358 0.6671,0.9316 0.3329,1.1384 -0.3771,0.2332 -5.3113,0.6874 -5.5255,0.5192 z m 62.6215,56.6209 c -0.1827,-0.2881 -0.6119,-0.4293 -1.2951,-0.4253 -1.4034,0.01 -1.6459,-0.5406 -0.814,-1.8616 0.5389,-0.8559 0.7539,-0.9908 1.5988,-1.0014 1.3801,-0.017 2.4797,1.338 2.0699,2.5519 -0.3973,1.1762 -1.0781,1.4958 -1.5596,0.7364 z m -9.1092,-4.7688 c -0.4098,-0.5129 -0.2313,-1.1343 0.4987,-1.7228 0.9052,-0.73 2.8123,-0.6226 3.3934,0.1909 0.5801,0.8119 0.024,1.4682 -1.0888,1.2968 -0.4526,-0.07 -1.112,0.036 -1.4661,0.2352 -0.7764,0.4363 -0.988,0.4365 -1.3368,0 z m 5.2476,0.2227 c -0.3429,-0.4326 0.045,-1.4216 0.7022,-1.7859 1.1567,-0.6409 2.4364,0.1456 1.9053,1.1671 -0.2876,0.5529 -2.286,1.0244 -2.6075,0.6188 z m 19.8309,0.5814 c -0.6982,-0.9011 0.478,-2.3349 2.0897,-2.5345 1.7263,-0.2139 2.5106,1.3716 0.9296,1.8256 -0.4166,0.1196 -1.2065,0.4002 -1.7611,0.6257 -0.7559,0.3074 -1.0682,0.3284 -1.2582,0.083 z m -14.4371,-1.4664 c -0.2964,-0.4629 0,-1.2714 0.6253,-1.7065 0.7398,-0.5137 2.4142,0.3107 2.3023,1.1339 -0.1401,1.0312 -2.36,1.4586 -2.9276,0.5726 z m -12.5714,-2.1719 c -0.3643,-0.3108 -0.4788,-0.817 -0.4623,-2.0255 0.012,-0.8872 -0.075,-1.8541 -0.1939,-2.1519 -0.1179,-0.2969 -0.1167,-0.7682 0,-1.0468 0.3163,-0.736 1.3229,-0.5907 1.6532,0.2417 0.3111,0.7842 0.8264,0.8935 1.5524,0.3287 0.7582,-0.5898 1.2864,-0.1957 1.1603,0.866 -0.1124,0.9467 0.9686,2.0838 2.0474,2.1555 1.0252,0.068 2.1553,-1.8993 1.7212,-3.0138 -0.4563,-1.1716 0.7046,-1.8483 1.4428,-0.8148 0.3348,0.4689 0.3974,1.4534 0.1665,2.6273 -0.3779,1.9219 -4.2328,3.1293 -5.7339,1.8224 -0.7006,-0.6099 -1.2001,-0.5757 -1.279,0.084 -0.048,0.3981 -1.0546,1.375 -1.3941,1.3541 -0.1092,-0.01 -0.417,-0.1988 -0.6838,-0.4266 z m 25.3842,1.2565 c -0.5185,-0.6655 0.8577,-2.6666 1.7851,-2.5883 0.6789,0.057 1.221,1.1528 0.7808,1.5769 -0.1839,0.1771 -0.4794,0.3097 -0.6569,0.2947 -0.1774,-0.015 -0.648,0.1805 -1.0459,0.4347 -0.3976,0.2542 -0.7859,0.3812 -0.8631,0.282 z m -31.776,-3.3482 c -3.0744,-1.7283 -0.5908,-8.2302 2.8948,-7.0758 0.7981,0.2643 0.466,0.9618 -0.5486,1.1691 -1.0968,0.224 -1.7568,1.0914 -1.9682,2.5728 -0.2707,1.8988 1.2073,3.2995 2.7472,2.6069 0.8249,-0.371 1.4615,-0.2288 1.4003,0.311 -0.039,0.3489 -2.3222,1.0761 -3.1188,0.9954 -0.2529,-0.026 -0.8862,-0.2868 -1.4067,-0.5794 z m 17.9822,0.1391 c 0.2148,-0.8758 1.5627,-1.3944 1.8857,-0.7203 0.1403,0.2927 -0.01,0.5508 -0.5445,0.9454 -1.0279,0.7575 -1.5603,0.6694 -1.3412,-0.2251 z m 5.7888,-1.5885 c -0.4794,-0.4351 -0.1798,-1.0721 0.7421,-1.5686 0.7,-0.3771 0.9815,-1.2188 0.6471,-1.9342 -0.1513,-0.3209 -0.2698,-0.339 -0.6247,-0.095 -0.5332,0.3659 -1.8124,0.1525 -1.9022,-0.3176 -0.037,-0.1912 0.3488,-0.4769 0.8796,-0.6512 1.9656,-0.6452 3.8043,-3.2692 2.6631,-3.8256 -0.5767,-0.2813 -0.3613,-0.8971 0.7272,-2.0648 1.2668,-1.3592 1.3506,-1.3476 2.7438,0.4971 1.3833,1.8317 1.2934,2.5337 -0.2414,2.156 -0.8362,-0.2057 -0.9932,-0.1573 -1.3369,0.4099 -0.7602,1.2544 -0.4435,2.1135 1.3689,3.7721 0.5228,0.4783 0.8485,1.0247 0.8042,1.347 -0.078,0.5669 -0.2223,0.5585 -2.1581,-0.1 -0.8251,-0.2806 -1.1172,0.5958 -0.4968,1.4721 0.6061,0.8558 0.074,1.3926 -1.0877,1.1065 -0.5469,-0.1347 -1.2963,-0.1561 -1.6661,-0.048 -0.4622,0.1352 -0.7927,0.087 -1.059,-0.1549 -10e-5,0 -10e-5,0 -10e-5,0 z m 14.738,0.106 c -0.3795,-0.2518 -0.9555,-0.4806 -1.2803,-0.5087 -0.845,-0.073 -1.3148,-0.8664 -0.7212,-1.2215 1.7588,-1.052 1.7584,-2.3057 -0.018,-2.2024 -1.8607,0.1081 -2.4826,-1.1663 -0.5939,-1.3793 0.9986,-0.1126 2.7119,-1.5032 2.6697,-2.1703 -0.025,-0.4041 -0.2399,-0.5014 -1.1527,-0.521 -0.8464,-0.018 -1.147,-0.1342 -1.2281,-0.4758 -0.1277,-0.5381 0.7046,-1.1046 1.5221,-1.0345 0.7007,0.06 1.9426,-1.5503 2.1061,-2.7343 0.1929,-1.397 1.2126,-0.9224 1.5197,0.7201 0.1321,0.7067 0.4773,1.6083 0.7666,2.0012 0.5789,0.7862 0.373,1.1276 -0.7027,1.1761 -1.6153,0.073 -1.1772,3.0926 0.5294,3.7302 0.8039,0.3004 1.0567,0.5712 1.2588,1.3483 0.3994,1.5372 -0.2991,1.8176 -1.9594,0.8037 -0.9401,-0.574 -0.9757,-0.5669 -1.3526,0.2474 -0.1814,0.392 -0.1212,0.7397 0.1969,1.1483 0.5696,0.7305 0.5317,1.0305 -0.162,1.3205 -0.6735,0.2813 -0.5741,0.2987 -1.3983,-0.248 0,0 0,0 -10e-5,0 z m -23.9277,-3.9252 c -0.183,-0.3364 -0.3098,-0.808 -0.2814,-1.0474 0.069,-0.5834 -0.3258,-0.937 -1.5916,-1.4179 -1.3185,-0.5009 -2.0209,-1.268 -1.9272,-2.1111 0.205,-1.8443 -1.751,-2.3485 -3.3392,-0.8585 -0.6955,0.6525 -1.2846,0.9837 -1.708,0.9591 -0.7497,-0.044 -1.1537,0.307 -1.5089,1.3055 -0.281,0.7907 -1.1013,0.9384 -1.29,0.2358 -0.3876,-1.4435 0.4101,-2.606 2.2646,-3.2586 0.5193,-0.1827 1.2721,-0.6332 1.6699,-0.9998 1.1794,-1.0869 1.5468,-1.1589 3.0732,-0.5987 1.3838,0.5079 1.8325,0.9737 2.5228,2.6323 0.3273,0.7867 0.4423,0.8411 2.1125,1.0281 1.767,0.198 1.7693,0.2009 1.6333,1.9762 -0.1928,2.518 -0.9203,3.4596 -1.63,2.155 z m 48.428,0.9637 c -0.6348,-0.8268 0.7273,-2.5431 1.9278,-2.4252 0.7233,0.071 1.6465,1.404 1.5213,2.1955 -0.088,0.5572 -0.201,0.6081 -1.0742,0.4681 -0.5366,-0.086 -1.2303,-0.097 -1.5421,-0.024 -0.3278,0.076 -0.6788,-0.014 -0.8328,-0.2145 z m -39.0897,-5.2526 c -0.5527,-0.4287 -0.031,-1.04 0.7172,-0.8342 0.7313,0.2013 0.8116,0.7823 0.1386,0.981 -0.5256,0.1552 -0.4499,0.1682 -0.8558,-0.1468 0,0 0,0 0,0 z m 33.2121,1.9213 c -0.6484,-0.5779 -0.5765,-1.2442 0.1484,-1.3596 0.5605,-0.089 0.9374,-1.1481 0.5239,-1.4735 -0.3164,-0.2489 -0.7139,-2.9015 -0.4931,-3.2987 0.3094,-0.5565 1.1909,-0.3125 1.6468,0.4568 0.5469,0.9224 0.795,0.9175 1.3166,-0.029 0.5821,-1.0562 1.4393,-0.8542 1.1678,0.276 -1.0915,4.5444 -1.2138,4.8548 -2.0557,5.4218 -0.9647,0.6499 -1.5308,0.6516 -2.2545,0.01 0,0 0,0 10e-5,0 z m 4.0466,0.4004 c -0.4565,-0.5924 -0.4016,-0.9334 0.2415,-1.486 0.4463,-0.3837 0.4796,-0.5314 0.2559,-1.1468 -0.5085,-1.4016 0.6459,-2.0184 1.6905,-0.8931 1.6827,1.8126 3.1173,0.1199 1.5379,-1.9248 -0.7909,-1.0239 -0.4456,-1.6874 0.706,-1.3462 1.1829,0.3503 2.0571,1.8077 1.8561,3.0919 -0.22,1.4053 -0.6526,1.8913 -2.0888,2.3526 -0.9916,0.3185 -1.2811,0.5469 -1.4425,1.1362 -0.2489,0.9075 -2.1121,1.0527 -2.7567,0.2162 0,0 10e-5,10e-5 10e-5,0 z m -10.2635,-3.0774 c -1.2685,-1.6261 -0.3909,-4.543 1.6458,-5.4166 1.1585,-0.4968 1.3579,0.8951 0.2553,1.7117 -0.6118,0.4529 -0.7508,0.7234 -0.7114,1.3792 0.082,1.3586 0.4856,1.6571 2.4113,1.7851 2.0156,0.134 2.191,0.6994 0.4376,1.3591 -1.6683,0.6277 -3.1436,0.3288 -4.0386,-0.8185 z m -54.8827,-6.8662 c -0.359,-0.4446 -0.5556,-0.5022 -0.9984,-0.2928 -0.7533,0.3562 -2.149,-0.019 -2.1033,-0.5656 0.042,-0.5338 1.9242,-2.3353 2.417,-2.3125 0.1976,0.01 0.5534,0.2975 0.7904,0.6409 0.2367,0.3429 0.7991,0.9201 1.2478,1.2808 0.9575,0.7699 0.8911,1.4128 -0.1607,1.6405 -0.5738,0.1243 -0.8497,0.034 -1.193,-0.3913 10e-5,0 2e-4,0 2e-4,0 z m 26.2421,1.5155 c -0.1482,-0.2215 -0.582,-0.4624 -0.9642,-0.5354 -0.9451,-0.1805 -0.9391,-1.0487 0.019,-1.7972 0.4086,-0.3192 0.7653,-0.7703 0.7922,-1.0026 0.092,-0.7927 0.9745,-1.536 1.758,-1.4777 0.6112,0.045 0.8814,0.3124 1.4442,1.4381 0.8118,1.6238 0.6539,2.2399 -0.469,1.923 -0.7181,-0.2026 -0.7893,-0.1513 -1.1853,0.8456 -0.435,1.0951 -0.9258,1.3071 -1.3946,0.6062 z m -9.2,-1.3098 c -0.5737,-0.5349 -0.6584,-0.5453 -1.736,-0.2027 -1.4291,0.4545 -3.0557,-0.036 -3.2599,-0.9846 -0.3667,-1.7041 0.5393,-3.6102 1.7002,-3.5394 0.7728,0.047 0.7768,0.093 0.125,1.1184 -0.7476,1.1764 -0.3025,2.1099 0.9845,2.0809 0.8653,-0.019 0.9618,-0.1041 1.341,-1.1874 0.4612,-1.3169 1.0107,-1.5519 1.6555,-0.7005 0.2371,0.3128 0.7586,0.5905 1.1593,0.6172 0.9161,0.061 0.9965,0.4231 0.3887,1.7352 -0.8404,1.8141 -1.3218,2.0291 -2.3583,1.0628 0,0 0,10e-5 0,10e-5 z m 5.6607,-1.2845 c -0.032,-0.191 -0.1477,-0.8352 -0.264,-1.4595 -0.2279,-1.2234 -0.013,-1.9465 0.5724,-1.9056 0.7841,0.055 1.4069,2.4648 0.851,3.2884 -0.3596,0.5329 -1.0765,0.5798 -1.1596,0.077 z m 34.2942,0.9282 c -0.3655,-1.3841 -0.209,-1.9 0.7859,-2.5587 1.3027,-0.8623 1.9862,-0.9392 2.5017,-0.2835 0.4142,0.5269 0.2468,1.4332 -0.2548,1.3858 -0.4707,-0.044 -1.1759,0.7659 -1.2792,1.4695 -0.1001,0.682 -0.5464,1.0243 -1.2481,0.9585 -0.1408,-0.013 -0.3683,-0.4504 -0.5059,-0.9716 0,0 10e-5,0 10e-5,0 z m 12.9725,1.4583 c -0.082,-0.1058 -0.087,-0.5922 -0.012,-1.0807 0.1093,-0.7115 -0.01,-0.9928 -0.5865,-1.4135 -1.3604,-0.9881 -0.2861,-2.1744 1.5066,-1.6491 1.8434,0.54 1.6916,4.5767 -0.1521,4.3954 -0.3335,-0.033 -0.6735,-0.1463 -0.7555,-0.2521 z m -63.0678,-7.3228 c -0.6185,-0.712 0.141,-1.9661 1.1759,-2.2165 0.145,-0.035 0.2954,-0.051 0.4482,-0.042 0.6027,0.033 1.3485,0.9562 1.2918,1.597 -0.05,0.5643 -2.0188,1.0639 -2.7306,0.7833 -0.078,-0.031 -0.1413,-0.071 -0.1853,-0.1218 z m 7.0263,0 c -0.7101,-0.8296 0.5189,-2.7121 1.7332,-2.6361 0.5999,0.037 0.5889,0.094 -0.2777,1.6044 -0.6765,1.1789 -1.0828,1.4672 -1.4555,1.0317 z m 10.0675,0.1115 c -0.1411,-1.2841 -0.1862,-1.3551 -0.9795,-1.5887 -1.2204,-0.3594 -1.4555,-0.9131 -0.5801,-1.3889 1.5228,-0.8277 3.4346,0.4374 3.2469,2.1418 -0.1709,1.5522 -1.5368,2.2055 -1.6873,0.8358 z m 42.6899,2.2547 c -0.9432,-1.463 -1.9294,-1.738 -3.0834,-0.8632 -1.2075,0.9154 -1.7752,0.6359 -1.3213,-0.6533 0.8813,-2.5024 5.0388,-1.9052 5.9968,0.8633 0.5953,1.7206 -0.6001,2.192 -1.5921,0.6532 z m -49.242,-5.5975 c -0.3547,-0.4138 -0.013,-1.424 0.5913,-1.7393 1.6197,-0.8451 3.3298,-0.4844 3.5131,0.737 0.141,0.9397 -0.395,1.3947 -1.0605,0.908 -0.662,-0.4842 -1.42,-0.5043 -1.8688,-0.051 -0.3908,0.3949 -0.9069,0.4586 -1.1753,0.1451 0,0 0,0 0,0 z m 16.4886,-3.0508 c -0.3879,-0.4665 -0.052,-0.9259 0.9049,-1.2294 0.708,-0.2248 0.9914,-0.4581 0.96,-0.7927 -0.046,-0.4887 -0.3377,-0.5554 -1.5285,-0.3448 -0.428,0.076 -0.8748,-0.037 -1.1754,-0.2975 -0.633,-0.548 -0.2878,-0.8905 1.7963,-1.7455 2.0376,-0.8359 2.1578,-0.9614 2.1234,-2.3196 -0.027,-1.0723 -0.074,-1.1316 -0.9398,-1.2002 -1.1394,-0.09 -1.1289,-0.5384 0.046,-1.4509 0.4849,-0.3766 1.1888,-1.183 1.5622,-1.7902 0.8032,-1.3063 1.3801,-1.3599 1.8894,-0.171 0.2028,0.4731 0.717,1.4305 1.1337,2.1129 0.8736,1.4309 0.5869,2.1209 -0.734,1.8181 -0.7769,-0.1781 -1.0661,0.1929 -1.2313,1.5687 -0.077,0.669 1.0274,1.998 2.6541,3.2019 1.2807,0.9477 0.8352,1.4335 -0.994,1.1155 -1.6155,-0.2809 -1.9324,-0.154 -1.278,0.4982 0.3866,0.3848 0.4192,0.9904 0.064,1.1576 -0.4136,0.1945 -5.0806,0.076 -5.2529,-0.1311 z"
       id="path90866-6-2" />
  </g>
</svg>
