<?xml version="1.0" encoding="UTF-8" standalone="no"?>
<!-- Created with Inkscape (http://www.inkscape.org/) -->

<svg
   width="2896"
   height="2048"
   viewBox="0 0 766.23334 541.86668"
   version="1.1"
   id="svg23756"
   xmlns="http://www.w3.org/2000/svg"
   xmlns:svg="http://www.w3.org/2000/svg">
  <defs
     id="defs23753" />
  <g
     id="layer1">
    <path
       style="fill:none;fill-opacity:1;stroke:#000000;stroke-width:0.121189;stroke-linecap:round;stroke-linejoin:round;stroke-miterlimit:6.16041;stroke-dasharray:none;stroke-opacity:1"
       d="m 141.8064,304.04529 c 45.60524,-33.89034 91.21033,-67.78056 123.46577,-74.00907 32.25545,-6.22851 51.16006,15.2031 76.40143,17.64721 25.24138,2.4441 56.81815,-14.09829 85.29908,-7.7371 28.48093,6.36118 53.86409,35.62433 76.56587,41.64635 22.70178,6.02201 42.72133,-11.19627 60.18451,-14.03849 17.46318,-2.84221 32.36841,8.69092 46.62596,10.27045 14.25756,1.57952 27.86708,-6.79384 39.59034,-7.114 11.72326,-0.32015 21.55912,7.41211 34.41425,-5.30492 12.85513,-12.71703 28.7295,-45.88184 44.60429,-79.04754"
       id="path_2" />
    <path
       style="fill:none;fill-opacity:1;stroke:#000000;stroke-width:0.121189;stroke-linecap:round;stroke-linejoin:round;stroke-miterlimit:6.16041;stroke-dasharray:none;stroke-opacity:1"
       d="m 658.99607,320.56462 c -37.45622,26.42495 -74.91177,52.84942 -104.7891,59.88903 -29.87733,7.03961 -52.17602,-5.30451 -74.82652,9.43684 -22.65051,14.74135 -45.65135,56.56587 -69.54343,62.63968 -23.89207,6.07382 -48.67432,-23.60202 -72.86863,-48.07906 -24.19431,-24.47703 -47.79908,-43.75376 -73.37663,-46.06435 -25.57754,-2.31059 -53.12565,12.34426 -73.37514,10.3389 -20.2495,-2.00536 -33.20007,-20.67015 -48.67678,-23.23644 -15.47671,-2.56629 -33.47784,10.96534 -43.213469,-5.21968 -9.735634,-16.18503 -11.206079,-62.08515 6.666499,-75.04034 17.87258,-12.95518 55.08699,7.03537 80.80345,9.76058 25.71647,2.72521 39.93399,-11.81548 62.79962,-11.31106 22.86563,0.50441 54.37752,16.05437 73.55879,13.0168 19.18127,-3.03757 26.03095,-24.66297 41.90677,-31.61329 15.87583,-6.95032 40.77687,0.7754 61.04797,-2.20739 20.2711,-2.98279 35.91128,-16.67438 52.1046,-15.28838 16.19331,1.38599 32.93816,17.84981 49.68335,34.31398"
       id="path_1" />
    <ellipse
       style="fill:#ffff00;fill-opacity:1;stroke:#000000;stroke-width:0.126904;stroke-linecap:round;stroke-linejoin:round;stroke-miterlimit:6.16041"
       id="obj2path_0-path_1-speed_5s_rotate_auto_repeat_indefinite_"
       cx="203.25214"
       cy="48.241959"
       rx="5.6480222"
       ry="36.654892" />
    <rect
       style="fill:none;fill-opacity:1;stroke:#000000;stroke-width:0.139784;stroke-linecap:round;stroke-linejoin:round;stroke-miterlimit:6.16041"
       id="obj2path_1-path_2-speed_5s_rotate_auto_repeat_indefinite_"
       width="5.1721201"
       height="55.087746"
       x="217.00455"
       y="22.848095" />
    <path
       style="fill:#000000;fill-opacity:1;stroke:#000000;stroke-width:0.0529167;stroke-linecap:round;stroke-linejoin:round;stroke-miterlimit:6.16041"
       d="M 35.003586,89.330024 98.541288,70.418028 110.15204,109.42609 177.85097,89.275509"
       id="path_3" />
    <ellipse
       style="fill:#ff0000;fill-opacity:1;stroke:#000000;stroke-width:0.0529167;stroke-linecap:round;stroke-linejoin:round;stroke-miterlimit:6.16041"
       id="obj2path_2-path_3-speed_15s_rotate_auto_repeat_indefinite_"
       cx="44.781181"
       cy="44.102921"
       rx="9.2265282"
       ry="8.6854887" />
    <path
       style="fill:#0000ff;fill-opacity:1;stroke:#000000;stroke-width:0.0529167;stroke-linecap:round;stroke-linejoin:round;stroke-miterlimit:6.16041"
       d="M 85.947135,214.20506 313.84369,177.31771"
       id="path_4" />
    <g
       id="g19230"
       style="fill:#ff00ff">
      <path
         id="path19225"
         style="fill:#ff00ff;fill-opacity:1;stroke:#000000;stroke-width:0.0529167;stroke-linecap:round;stroke-linejoin:round;stroke-miterlimit:6.16041"
         d="m 172.30515,137.15097 c -0.10131,-1.21721 0.14343,-2.47582 0.78017,-3.51813 0.63675,-1.04232 1.6787,-1.85067 2.87101,-2.11571 0.71856,-0.15973 1.47958,-0.12218 2.17982,0.10476 0.70025,0.22695 1.33803,0.6424 1.83079,1.18923 0.49276,0.54684 0.83955,1.22354 0.99851,1.94228 0.15896,0.71873 0.13002,1.47781 -0.0804,2.18319 -0.29901,1.0023 -0.95568,1.8759 -1.76558,2.53777 -0.8099,0.66187 -1.76837,1.12286 -2.75828,1.46065 -1.97981,0.67557 -4.09787,0.87611 -6.07388,1.5627 -2.14505,0.74532 -4.08933,2.06844 -5.55266,3.80494 -1.46333,1.7365 -2.43939,3.88309 -2.76393,6.13063 -0.32453,2.24754 0.006,4.58888 0.96155,6.6491 0.95512,2.06022 2.53351,3.83001 4.48299,4.99461 1.94947,1.16461 4.26305,1.71597 6.52657,1.53366 2.26352,-0.18231 4.46516,-1.10091 6.17252,-2.59813 1.70735,-1.49723 2.90805,-3.56724 3.33836,-5.79694 0.43031,-2.22971 0.0835,-4.60523 -0.98576,-6.60859 -1.34967,-2.52877 -3.70801,-4.32749 -5.813,-6.27308 -1.05249,-0.9728 -2.06182,-2.00702 -2.8573,-3.1992 -0.79547,-1.19217 -1.37261,-2.55547 -1.49149,-3.98374 z" />
    </g>
    <path
       style="fill:#ff00ff;fill-opacity:1;stroke:#000000;stroke-width:0.0529167;stroke-linecap:round;stroke-linejoin:round;stroke-miterlimit:6.16041"
       d="m 223.90358,120.09437 c 1.46163,1.38806 2.73251,2.97671 3.76583,4.70741 3.03954,5.09093 3.91201,11.42933 2.36094,17.15214"
       id="path19350" />
    <path
       d="m 293.92897,110.8199 c 0.63761,0.4636 1.2344,1.03596 1.83118,1.75901 0.52162,0.63199 0.99845,1.32202 1.52649,2.13474 0.42465,0.65359 0.98138,1.54543 1.49085,2.28542 0.49529,0.71939 1.06883,1.48308 1.7512,2.18581 l 0.87744,-0.90144 c -0.51924,-0.47767 -0.92596,-1.02853 -1.45224,-1.74598 -0.43043,-0.58676 -0.96611,-1.32088 -1.64679,-1.91764 -0.0151,-0.0136 -0.047,-0.0434 -0.0874,-0.0823 -0.0388,-0.0374 -0.0832,-0.081 -0.129,-0.1271 -0.0449,-0.0451 -0.0905,-0.0919 -0.13253,-0.13618 -0.0417,-0.0439 -0.0777,-0.0831 -0.10493,-0.1144 -0.0134,-0.0154 -0.0228,-0.0267 -0.0288,-0.0342 -0.007,-0.009 -0.005,-0.006 0.003,0.005 0.004,0.006 0.0129,0.0199 0.0238,0.041 0.008,0.0158 0.0326,0.0641 0.0488,0.1331 0.008,0.0358 0.019,0.0951 0.0155,0.16924 -0.002,0.0383 -0.008,0.0841 -0.0213,0.13448 -0.0139,0.0508 -0.036,0.10621 -0.0699,0.16163 -0.0342,0.0559 -0.0776,0.10684 -0.12901,0.15037 -0.051,0.0432 -0.10487,0.0747 -0.15681,0.0971 -0.10088,0.0433 -0.19111,0.0507 -0.24765,0.0505 -0.0577,-2.6e-4 -0.10379,-0.009 -0.1323,-0.0152 -0.0298,-0.007 -0.0535,-0.0147 -0.0691,-0.0204 -0.0302,-0.011 -0.0509,-0.0217 -0.0581,-0.0254 -0.0147,-0.008 -0.0173,-0.0104 -0.002,-1e-4 0.0267,0.0179 0.076,0.0536 0.15601,0.11594 0.51488,0.44777 1.04702,0.92611 1.5122,1.44426 0.44071,0.49091 0.82901,1.02542 1.09933,1.62517 0.024,0.0639 0.0377,0.12435 0.0439,0.18283 0.007,0.0617 0.005,0.12618 -0.004,0.19563 -0.0195,0.13967 -0.0726,0.29753 -0.16381,0.48787 -0.0913,0.19036 -0.20242,0.37747 -0.33449,0.60387 -0.11512,0.19734 -0.24863,0.42878 -0.35411,0.66904 -0.0232,0.0401 -0.0465,0.0803 -0.0699,0.12042 -0.64511,1.10969 -1.38628,2.3259 -2.22849,3.4684 -0.79979,1.08496 -1.73183,2.16175 -2.84812,3.09106 -0.20401,0.16529 -0.44201,0.33496 -0.69536,0.48071 -0.24489,0.14088 -0.49893,0.25638 -0.75046,0.32918 -0.24184,0.07 -0.47513,0.0984 -0.69074,0.0773 -0.20485,-0.02 -0.40734,-0.0854 -0.60593,-0.21968 -0.45876,-0.31016 -0.85001,-0.69287 -1.18182,-1.13804 -0.32375,-0.43433 -0.59056,-0.92774 -0.80634,-1.46823 -0.41813,-1.04731 -0.63136,-2.23807 -0.7101,-3.43264 -0.14095,-2.8565 0.23948,-5.92267 1.43243,-8.75482 0.005,-0.0114 0.009,-0.0229 0.0134,-0.0346 0.0238,-0.0673 0.0561,-0.14611 0.0962,-0.23078 0.0397,-0.0838 0.0858,-0.17046 0.13666,-0.25458 0.0506,-0.0837 0.10415,-0.16193 0.15867,-0.2307 0.0546,-0.0688 0.10589,-0.12287 0.1514,-0.16222 0.046,-0.0398 0.0763,-0.0561 0.0885,-0.0613 0.0101,-0.004 -0.009,0.004 -0.0366,0.001 -0.0276,-0.002 -0.0539,-0.0179 -0.0444,-0.0111 0.0103,0.007 0.0481,0.0388 0.10369,0.12394 0.0201,0.0309 0.0429,0.0599 0.0682,0.0868 3.42675,3.65302 6.58169,7.66336 9.63348,11.97726 1.37486,1.92957 2.61323,4.00876 3.70254,6.22855 0.004,0.007 0.007,0.0142 0.0109,0.0212 0.89831,1.66777 1.84911,3.63205 2.91021,5.36137 0.058,0.0945 0.11853,0.18943 0.20213,0.26217 0.0836,0.0727 0.19014,0.12084 0.30083,0.12599 0.1107,0.005 0.22124,-0.0328 0.31123,-0.0975 0.09,-0.0647 0.15912,-0.15361 0.22559,-0.24228 3.577,-4.77126 7.36896,-9.85104 9.98142,-15.54853 0.002,-0.005 0.004,-0.01 0.006,-0.0145 0.46562,-1.08697 0.94827,-2.26994 1.26495,-3.49394 0.31464,-1.21614 0.47466,-2.50079 0.28652,-3.82601 -0.0513,-0.40231 -0.1671,-0.79027 -0.33311,-1.15079 -0.16486,-0.35802 -0.37833,-0.68713 -0.62631,-0.98477 -0.48897,-0.5869 -1.11635,-1.05666 -1.78784,-1.39159 -1.55592,-0.82032 -3.25834,-1.18904 -4.975,-1.24887 -1.70136,-0.0593 -3.42074,0.18454 -5.03596,0.59483 -0.004,0.001 -0.009,0.002 -0.0128,0.003 -0.86412,0.23895 -1.74891,0.52201 -2.60668,0.88504 -0.85152,0.36039 -1.68507,0.80314 -2.45267,1.36773 -0.0324,0.0239 -0.0645,0.0486 -0.0918,0.0782 -0.0273,0.0296 -0.0494,0.0635 -0.0706,0.0978 -0.0983,0.15897 -0.16742,0.32553 -0.20827,0.49752 -0.0407,0.17128 -0.0514,0.33959 -0.0407,0.5012 0.021,0.31761 0.12427,0.60735 0.23918,0.852 0.1143,0.24336 0.25643,0.47502 0.37658,0.66947 0.12783,0.20686 0.22696,0.36601 0.29727,0.51097 0.0166,0.0343 0.0363,0.067 0.0589,0.0977 0.49627,0.67606 0.68692,1.49112 0.52435,2.31398 -0.005,0.0274 -0.009,0.055 -0.0107,0.0829 -0.0847,1.36001 -0.20918,2.74211 -0.27821,4.142 -0.0681,1.38038 -0.082,2.78506 0.0577,4.19605 3.2e-4,0.17381 0.0232,0.3402 0.0687,0.49858 0.0491,0.17061 0.12206,0.32368 0.21175,0.46058 0.0891,0.13594 0.1922,0.2524 0.29952,0.35304 0.10684,0.10019 0.21977,0.18652 0.33034,0.262 0.21386,0.146 0.45119,0.272 0.63732,0.37446 0.20128,0.1108 0.35442,0.20003 0.47454,0.29468 0.0375,0.0296 0.0782,0.0547 0.12145,0.0751 0.13076,0.0615 0.24177,0.14303 0.32715,0.23306 0.0855,0.0902 0.14028,0.18341 0.16885,0.26824 0.0279,0.0827 0.0317,0.15865 0.0165,0.22904 -0.015,0.0694 -0.054,0.15864 -0.14925,0.26061 -0.0382,0.0409 -0.0708,0.0867 -0.0969,0.13627 -2.26605,4.30284 -4.5326,8.60337 -7.09722,12.7174 -0.15475,0.21396 -0.31677,0.43061 -0.49071,0.63511 -0.17876,0.21017 -0.3626,0.39847 -0.55263,0.55082 -0.1899,0.15224 -0.37561,0.26018 -0.55801,0.32197 -0.16599,0.0562 -0.33689,0.0771 -0.52134,0.052 -0.20617,-0.0694 -0.38565,-0.17851 -0.5468,-0.32168 -0.17362,-0.15425 -0.32909,-0.35103 -0.46963,-0.58486 -0.14064,-0.23399 -0.26146,-0.49693 -0.3687,-0.77628 -0.10721,-0.27926 -0.19777,-0.56668 -0.28101,-0.84922 -0.18745,-0.66803 -0.2817,-1.36709 -0.25982,-2.05256 0.0219,-0.6859 0.15987,-1.35515 0.43216,-1.97649 0.003,-0.008 0.007,-0.0155 0.01,-0.0233 0.56282,-1.43847 1.2896,-2.806 2.09502,-4.14704 0.79627,-1.32578 1.66194,-2.61381 2.52006,-3.92057 0.0392,-0.0341 0.079,-0.0618 0.1194,-0.0848 0.0548,-0.0311 0.11459,-0.0554 0.18069,-0.0735 0.13428,-0.0366 0.29676,-0.0477 0.49138,-0.0311 0.195,0.0166 0.40519,0.0594 0.6281,0.11783 0.22081,0.0579 0.43255,0.12501 0.65254,0.19203 1.46715,0.52622 2.84577,1.26221 4.23459,2.05099 1.39005,0.78948 2.80087,1.63847 4.28007,2.34423 0.0123,0.006 0.0248,0.0113 0.0374,0.0164 0.42737,0.17083 0.85282,0.22889 1.25315,0.23827 0.39463,0.009 0.78797,-0.0291 1.13549,-0.0622 0.36255,-0.0345 0.67988,-0.0637 0.98701,-0.0559 0.30116,0.008 0.56783,0.0503 0.81938,0.15134 0.0248,0.01 0.0503,0.0184 0.0762,0.0251 0.87694,0.22806 1.795,0.52001 2.75244,0.72106 0.48066,0.10094 0.97326,0.17888 1.47494,0.21135 0.50413,0.0326 1.01824,0.0194 1.53974,-0.0628 0.007,-0.001 0.013,-0.002 0.0195,-0.003 0.51471,-0.0977 0.96401,-0.30109 1.35342,-0.57403 0.38876,-0.27249 0.71263,-0.61048 0.98444,-0.97362 0.27273,-0.36436 0.49803,-0.7607 0.68715,-1.15567 0.19011,-0.39701 0.34725,-0.80025 0.48038,-1.17921 0.002,-0.007 0.005,-0.0133 0.007,-0.0199 0.27101,-0.8626 0.55898,-1.75439 0.78082,-2.66389 0.22408,-0.91866 0.38331,-1.86505 0.39233,-2.83801 0.0229,-0.88313 -0.11862,-1.7367 -0.3647,-2.54293 -0.24756,-0.81107 -0.6027,-1.57994 -1.01027,-2.29183 -0.43166,-0.85157 -0.91861,-1.64475 -1.34275,-2.42847 -0.43495,-0.80371 -0.79757,-1.58135 -1.00645,-2.40318 -0.007,-0.0284 -0.0164,-0.0563 -0.0275,-0.0834 -0.0181,-0.0443 -0.0226,-0.0785 -0.0223,-0.1041 2.9e-4,-0.0263 0.006,-0.0529 0.0174,-0.0805 0.012,-0.0284 0.031,-0.059 0.0583,-0.089 0.0275,-0.0302 0.0612,-0.0574 0.0986,-0.0791 0.0377,-0.0218 0.0756,-0.0359 0.11028,-0.0433 0.0346,-0.007 0.0631,-0.007 0.0849,-0.004 0.0208,0.003 0.0387,0.01 0.0557,0.0207 0.0169,0.0108 0.0425,0.0318 0.0714,0.0745 0.0161,0.0238 0.0338,0.0464 0.053,0.0678 0.29682,0.33029 0.56845,0.65577 0.77801,0.99655 0.10485,0.17052 0.19048,0.33917 0.25419,0.50724 0.0382,0.1007 0.0684,0.20087 0.0901,0.30091 -0.0485,0.0621 -0.10517,0.12362 -0.17066,0.18542 -0.12356,0.11659 -0.27183,0.22834 -0.44401,0.34489 -0.17859,0.12087 -0.35667,0.22989 -0.55916,0.35998 -0.18739,0.12039 -0.38562,0.25269 -0.57265,0.4018 -1.30501,0.84863 -2.58772,1.65572 -3.9159,2.35374 -1.36756,0.71873 -2.74669,1.30161 -4.17847,1.6754 -0.2642,0.0657 -0.5418,0.11706 -0.81591,0.14397 -0.27856,0.0273 -0.5471,0.0288 -0.79817,-6.7e-4 -0.25404,-0.0298 -0.4859,-0.0909 -0.69091,-0.18492 -0.20679,-0.0948 -0.39196,-0.22535 -0.55286,-0.40034 -0.0201,-0.0219 -0.0418,-0.0423 -0.0648,-0.0612 -0.74492,-0.6093 -1.27059,-1.41076 -1.59637,-2.2851 -0.33994,-0.91234 -0.46094,-1.89921 -0.39276,-2.83879 3.3e-4,-0.005 6.1e-4,-0.009 8.5e-4,-0.0138 0.0517,-1.02316 0.22148,-2.03349 0.44184,-3.03481 0.22477,-1.02139 0.50649,-2.05095 0.77012,-3.06648 0.27251,-1.04971 0.52804,-2.09273 0.70258,-3.15394 0.17929,-1.09008 0.27047,-2.18506 0.2085,-3.30105 -0.026,-0.64973 -0.16027,-1.25926 -0.34623,-1.82327 -0.19106,-0.57948 -0.44198,-1.12589 -0.69661,-1.632409 -0.26588,-0.52888 -0.54179,-1.0282 -0.79127,-1.511833 -0.26159,-0.507112 -0.48849,-0.983972 -0.6651,-1.46644 -0.001,-0.0037 -0.003,-0.0074 -0.004,-0.01113 -0.39476,-1.018375 -0.54813,-1.991592 -0.544,-2.850782 a 0.62923729,0.62923729 90 0 0 -1.25846,-0.006 c -0.005,1.011832 0.17556,2.139682 0.62691,3.306141 0.20271,0.552654 0.45616,1.08132 0.72641,1.605202 0.26018,0.504368 0.53437,1.000955 0.78531,1.500136 0.24223,0.48185 0.46249,0.96586 0.62582,1.46123 0.15781,0.47864 0.26364,0.97107 0.28441,1.48928 0.0561,1.01158 -0.0247,2.01184 -0.19329,3.03673 -0.16476,1.00177 -0.40808,1.99879 -0.67889,3.04196 -0.25786,0.99329 -0.54964,2.0605 -0.78109,3.11223 -0.22831,1.03747 -0.41237,2.11955 -0.4693,3.23492 -0.0791,1.10279 0.062,2.26944 0.46917,3.36233 0.3873,1.03944 1.02181,2.02582 1.94549,2.79231 0.27261,0.28756 0.58549,0.50396 0.92333,0.65886 0.34346,0.15747 0.70564,0.24823 1.06869,0.29084 0.35695,0.0419 0.71755,0.0376 1.06781,0.003 0.3453,-0.0339 0.68404,-0.0974 1.00387,-0.17698 1.5564,-0.40627 3.02667,-1.0312 4.45305,-1.78084 1.39155,-0.73134 2.72318,-1.57133 4.04312,-2.43003 0.0184,-0.012 0.0361,-0.0249 0.0532,-0.0387 0.13933,-0.11297 0.30028,-0.22206 0.48703,-0.34204 0.17275,-0.11098 0.39011,-0.24513 0.58434,-0.37659 0.19895,-0.13466 0.40912,-0.28947 0.60232,-0.47179 0.19258,-0.18173 0.37588,-0.39772 0.51842,-0.65991 0.0302,-0.0556 0.0586,-0.11311 0.0711,-0.17515 0.0125,-0.062 0.008,-0.12607 0.002,-0.18903 -0.0295,-0.29006 -0.0999,-0.56481 -0.19803,-0.82361 -0.097,-0.2558 -0.22088,-0.49585 -0.35894,-0.72036 -0.26344,-0.42842 -0.58629,-0.81256 -0.88837,-1.14998 -0.11395,-0.15826 -0.2516,-0.29012 -0.40949,-0.3908 -0.16992,-0.10834 -0.35378,-0.17449 -0.53979,-0.20328 -0.18421,-0.0285 -0.36657,-0.0199 -0.53787,0.0164 -0.17038,0.0361 -0.33254,0.0999 -0.47994,0.18517 -0.14685,0.085 -0.28252,0.19315 -0.39921,0.32136 -0.11631,0.1278 -0.21591,0.27793 -0.28726,0.44721 -0.0714,0.16932 -0.11391,0.35666 -0.11614,0.55524 -0.002,0.18324 0.0303,0.36855 0.0984,0.54997 0.24785,0.95535 0.66209,1.82708 1.10951,2.65381 0.44823,0.82825 0.93212,1.61758 1.33402,2.41227 0.005,0.01 0.0103,0.0197 0.0158,0.0293 0.37433,0.65197 0.69009,1.33872 0.90631,2.04711 0.21358,0.69975 0.32962,1.41912 0.31019,2.14767 -1e-4,0.004 -1.7e-4,0.008 -2e-4,0.0113 -0.007,0.84649 -0.14607,1.69328 -0.35658,2.55634 -0.20902,0.8569 -0.48059,1.69951 -0.75563,2.57475 -0.12274,0.34863 -0.2619,0.70315 -0.42464,1.04301 -0.16376,0.34198 -0.34851,0.66304 -0.5596,0.94506 -0.21005,0.28062 -0.44181,0.51675 -0.69925,0.6972 -0.25182,0.1765 -0.5336,0.30369 -0.85642,0.36637 -0.41251,0.0641 -0.82904,0.0759 -1.25262,0.0485 -0.42618,-0.0276 -0.85742,-0.0947 -1.29758,-0.18711 -0.86265,-0.18115 -1.74913,-0.46027 -2.65746,-0.6978 -0.41263,-0.15916 -0.82687,-0.21628 -1.21737,-0.22615 -0.39537,-0.01 -0.78814,0.0279 -1.13789,0.0611 -0.36173,0.0344 -0.6797,0.0641 -0.98691,0.0569 -0.29269,-0.007 -0.55279,-0.0468 -0.7978,-0.14174 -1.41844,-0.67831 -2.75964,-1.48616 -4.18081,-2.29331 -1.40379,-0.79729 -2.86566,-1.58141 -4.4464,-2.14671 -0.01,-0.003 -0.0191,-0.007 -0.0288,-0.01 -0.20514,-0.0624 -0.4576,-0.14255 -0.71436,-0.20984 -0.25899,-0.0679 -0.54584,-0.12928 -0.84017,-0.15439 -0.29389,-0.0251 -0.61263,-0.0156 -0.92958,0.0709 -0.15925,0.0435 -0.31735,0.10616 -0.4702,0.19283 -0.15297,0.0867 -0.29675,0.19525 -0.42874,0.32709 -0.0305,0.0305 -0.0578,0.064 -0.0814,0.1 -0.8601,1.31079 -1.7617,2.65021 -2.5874,4.02501 -0.82441,1.37264 -1.58691,2.8024 -2.18365,4.32498 -0.33971,0.77965 -0.50589,1.6056 -0.5322,2.42969 -0.0264,0.82634 0.0874,1.65378 0.30824,2.44057 0.0893,0.30329 0.19078,0.62741 0.31554,0.95239 0.12465,0.32469 0.27564,0.65859 0.46494,0.97354 0.1893,0.31498 0.42178,0.61916 0.71242,0.87737 0.29279,0.26014 0.64112,0.47032 1.05314,0.59674 0.026,0.008 0.0525,0.0143 0.0793,0.0188 0.42008,0.0713 0.8146,0.0274 1.17528,-0.0948 0.35614,-0.12063 0.66947,-0.31399 0.94144,-0.53203 0.27194,-0.218 0.5129,-0.46907 0.72408,-0.71735 0.21144,-0.2486 0.40066,-0.50358 0.56484,-0.73098 0.008,-0.0115 0.0163,-0.0233 0.0238,-0.0354 2.58386,-4.14295 4.86412,-8.46669 7.1184,-12.74712 0.20185,-0.23593 0.33714,-0.50167 0.39847,-0.78529 0.0672,-0.31075 0.0401,-0.61764 -0.0539,-0.89678 -0.0934,-0.27741 -0.2519,-0.52532 -0.44832,-0.73244 -0.18087,-0.19073 -0.39826,-0.35162 -0.63945,-0.47401 -0.19634,-0.14645 -0.40991,-0.2662 -0.58996,-0.36531 -0.21361,-0.11759 -0.38353,-0.20819 -0.53467,-0.31137 -0.0721,-0.0492 -0.13103,-0.0956 -0.17902,-0.1406 -0.0476,-0.0447 -0.0823,-0.086 -0.10768,-0.12469 -0.0248,-0.0379 -0.0428,-0.0765 -0.055,-0.11875 -0.0122,-0.0425 -0.0209,-0.0969 -0.0196,-0.16843 4.5e-4,-0.0249 -5.7e-4,-0.0498 -0.003,-0.0745 -0.13446,-1.33446 -0.12337,-2.68101 -0.0563,-4.04191 0.0667,-1.35262 0.18878,-2.71597 0.27479,-4.08559 0.22095,-1.11726 -0.0452,-2.27077 -0.71969,-3.21442 -0.10116,-0.19926 -0.22769,-0.40053 -0.33308,-0.57108 -0.12343,-0.19976 -0.22863,-0.37381 -0.30807,-0.54294 -0.0794,-0.16906 -0.11584,-0.29854 -0.12253,-0.39992 -0.003,-0.0484 4.2e-4,-0.0899 0.009,-0.12746 0.003,-0.0117 0.006,-0.0238 0.0106,-0.0363 0.63944,-0.45406 1.34105,-0.82453 2.07879,-1.13677 0.78812,-0.33355 1.61438,-0.59934 2.4452,-0.82926 1.52656,-0.38727 3.12222,-0.60939 4.6759,-0.55524 1.56958,0.0547 3.08055,0.39058 4.43782,1.10751 0.005,0.002 0.009,0.005 0.0138,0.007 0.53812,0.26753 1.02301,0.63539 1.3882,1.07372 0.18347,0.22021 0.33535,0.45645 0.45008,0.7056 0.11521,0.25021 0.19361,0.51477 0.22905,0.7925 0.15906,1.12082 0.029,2.23453 -0.25771,3.34271 -0.29028,1.12196 -0.73816,2.22727 -1.20028,3.30634 -2.41069,5.25745 -5.86694,10.00105 -9.27669,14.55759 -0.56041,-0.88632 -1.45849,-2.75039 -2.39385,-4.48775 -1.11732,-2.27544 -2.38874,-4.41004 -3.80092,-6.39197 -3.06337,-4.33029 -6.24358,-8.37614 -9.70691,-12.07252 -0.10978,-0.15897 -0.238,-0.29945 -0.38957,-0.4085 -0.17272,-0.12427 -0.36927,-0.20257 -0.58121,-0.22107 -0.21071,-0.0184 -0.40328,0.0251 -0.56671,0.0948 -0.16208,0.0692 -0.30161,0.16642 -0.41788,0.26699 -0.11807,0.10211 -0.22295,0.21698 -0.31436,0.3323 -0.0926,0.11684 -0.17602,0.23995 -0.24944,0.3614 -0.0742,0.12268 -0.14012,0.24692 -0.19681,0.36647 -0.054,0.11381 -0.10087,0.22619 -0.13911,0.33228 -1.27577,3.03702 -1.6712,6.29374 -1.52249,9.29441 1.7e-4,0.003 3.6e-4,0.007 5.8e-4,0.01 0.084,1.28084 0.31483,2.61306 0.79744,3.82188 0.25014,0.62654 0.56754,1.21901 0.96609,1.75371 0.40985,0.54986 0.90179,1.03353 1.48588,1.42843 0.38238,0.25862 0.78756,0.39046 1.18834,0.42968 0.40902,0.04 0.80421,-0.017 1.16317,-0.12092 0.37111,-0.10742 0.71885,-0.26927 1.02812,-0.44719 0.32173,-0.18508 0.61472,-0.39496 0.86664,-0.59915 1.2236,-1.01857 2.22323,-2.17851 3.06229,-3.31674 0.88287,-1.19766 1.65099,-2.46023 2.30349,-3.58264 0.0299,-0.0515 0.0598,-0.10296 0.0895,-0.15435 0.0129,-0.0223 0.0244,-0.0453 0.0345,-0.069 0.0725,-0.17049 0.17482,-0.3515 0.29904,-0.56444 0.12151,-0.20829 0.2637,-0.44672 0.38222,-0.69388 0.12236,-0.25518 0.23148,-0.54311 0.27543,-0.85798 0.0226,-0.16153 0.0279,-0.32928 0.01,-0.50196 -0.0185,-0.17515 -0.0607,-0.34976 -0.12867,-0.52276 -0.004,-0.009 -0.007,-0.0178 -0.0111,-0.0265 -0.34056,-0.76232 -0.81878,-1.41057 -1.31842,-1.96711 -0.5248,-0.58457 -1.11264,-1.10971 -1.6356,-1.56426 -0.008,-0.007 -0.0166,-0.014 -0.0251,-0.0207 -0.0962,-0.0752 -0.17676,-0.13521 -0.24239,-0.17928 -0.0322,-0.0216 -0.072,-0.047 -0.11505,-0.0696 -0.0215,-0.0113 -0.0542,-0.0274 -0.0942,-0.042 -0.0206,-0.008 -0.0487,-0.0167 -0.0824,-0.0245 -0.0324,-0.007 -0.0819,-0.0162 -0.14256,-0.0165 -0.0595,-2.7e-4 -0.15212,0.008 -0.25495,0.0517 -0.0529,0.0227 -0.1076,0.0548 -0.15939,0.0986 -0.0522,0.0442 -0.0961,0.0958 -0.13089,0.15256 -0.0345,0.0562 -0.0569,0.11257 -0.0711,0.16441 -0.014,0.0514 -0.0199,0.0984 -0.0218,0.13787 -0.004,0.0766 0.007,0.13878 0.0165,0.17775 0.0177,0.0754 0.0453,0.13165 0.0583,0.15676 0.0157,0.0304 0.0314,0.0555 0.0428,0.0729 0.023,0.0349 0.0471,0.0663 0.066,0.09 0.0204,0.0255 0.042,0.051 0.0632,0.0754 0.0429,0.0492 0.0918,0.1022 0.14042,0.15341 0.0501,0.0528 0.10275,0.10674 0.1533,0.15756 0.0517,0.052 0.10234,0.10178 0.14784,0.14563 0.0459,0.0443 0.0892,0.085 0.12524,0.11734 0.56584,0.49614 1.02364,1.11581 1.46748,1.72086 0.51442,0.70127 0.99069,1.35351 1.61496,1.9278 0.0769,0.0707 0.15428,0.14148 0.23986,0.20144 0.0856,0.06 0.17968,0.10904 0.28062,0.13607 0.10094,0.027 0.20851,0.0314 0.31019,0.007 0.10169,-0.0241 0.19665,-0.0768 0.26953,-0.1517 0.0729,-0.0749 0.12306,-0.17123 0.14438,-0.27353 0.0213,-0.10229 0.014,-0.20971 -0.0157,-0.30988 -0.0298,-0.10017 -0.0813,-0.19291 -0.1436,-0.27684 -0.0622,-0.0839 -0.13504,-0.15938 -0.20783,-0.23435 -0.61316,-0.63146 -1.14144,-1.33131 -1.6175,-2.02276 -0.49741,-0.72247 -1.0266,-1.57172 -1.47211,-2.25742 -0.53732,-0.82699 -1.04444,-1.56348 -1.6112,-2.25017 -0.65268,-0.79078 -1.32495,-1.44011 -2.06169,-1.97579 a 0.62923729,0.62923729 90 0 0 -0.74008,1.01786 z"
       id="obj2path_3-path_4-speed_2s_rotate_auto_repeat_indefinite_"
       style="fill:#ff00ff;fill-opacity:1;fill-rule:nonzero;stroke:none;stroke-width:0.2;stroke-linecap:round;stroke-linejoin:round;stroke-miterlimit:6.16041" />
  </g>
</svg>
